<?xml version="1.0" encoding="utf-8"?>
<!-- Generator: Adobe Illustrator 16.0.0, SVG Export Plug-In . SVG Version: 6.00 Build 0)  -->
<!DOCTYPE svg PUBLIC "-//W3C//DTD SVG 1.1//EN" "http://www.w3.org/Graphics/SVG/1.1/DTD/svg11.dtd">
<svg version="1.1" id="Layer_1" xmlns="http://www.w3.org/2000/svg" xmlns:xlink="http://www.w3.org/1999/xlink" x="0px" y="0px"
   width="348.015px" height="310.052px" viewBox="0 0 348.015 310.052" enable-background="new 0 0 348.015 310.052"
   xml:space="preserve">
<path fill-rule="evenodd" clip-rule="evenodd" fill="#2C3A3F" d="M265.836,156.585l7.021-33.85l-16.36-14.737l-4.153-21.608
  l-32.646-11.54l-26.58-23.943l-21.386,6.987L151.1,50.602l-26.405,22.659L91.602,84.072l-4.438,21.395l-17.065,14.644l6.747,35.1
  l-7.022,33.854l16.363,14.738l4.153,21.606l32.642,11.539l26.582,23.944l21.388-6.987l20.631,7.293l26.405-22.659l33.09-10.811
  l4.438-21.394l17.067-14.645L265.836,156.585z M267.905,124.354l-4.335,20.443l-5.642-29.35L267.905,124.354z M260.993,156.949
  l-9.724,45.852l-36.011,30.901l-45.135,14.745L125.802,233l-35.375-31.582l-8.737-46.571l9.722-45.846l36.014-30.904l45.133-14.744
  l44.319,15.445l35.379,31.585L260.993,156.949z M248.392,89.782l2.465,13.137l-22.231-20.026L248.392,89.782z M192.339,56.892
  l15.37,13.721l-27.556-9.74L192.339,56.892z M152.681,56.426l11.393,3.97l-25.867,8.451L152.681,56.426z M95.773,88.438
  l18.141-5.927l-20.64,17.712L95.773,88.438z M75.63,122.545l9.722-8.344l-5.927,28.575L75.63,122.545z M74.776,187.447L79.113,167
  l5.642,29.356L74.776,187.447z M94.291,222.019l-2.464-13.135l22.228,20.022L94.291,222.019z M150.343,254.909l-15.371-13.722
  l27.557,9.74L150.343,254.909z M190.002,255.375l-11.394-3.971l25.868-8.45L190.002,255.375z M246.908,223.363l-18.138,5.925
  l20.637-17.709L246.908,223.363z M263.257,169.019l3.796,20.235l-9.725,8.346L263.257,169.019z"/>
<path fill="#53AFC6" d="M141.847,127.802c0-7.494,2.499-13.447,7.497-17.862c4.998-4.413,11.286-6.621,18.867-6.621
  c7.329,0,13.245,1.833,17.743,5.497c4.83,3.997,7.246,9.618,7.246,16.863c0,4.664-1.709,9.077-5.123,13.24
  c-2.416,2.916-6.08,6.164-10.994,9.743l11.119,12.491c1.75-2.165,3.373-4.413,4.873-6.746c1.5-2.33,2.957-4.912,4.373-7.744h19.117
  c-3.499,10.326-8.996,19.693-16.492,28.104l16.492,18.861h-26.863l-4.873-5.621c-5.082,2.832-9.393,4.769-12.932,5.808
  c-3.541,1.041-8.102,1.562-13.682,1.562c-7.081,0-13.203-2.124-18.367-6.371c-5.497-4.496-8.246-10.242-8.246-17.237
  c0-5.413,1.79-10.324,5.372-14.739c2.831-3.498,6.997-6.871,12.495-10.117c-2.249-2.83-4.082-5.912-5.498-9.244
  C142.554,134.34,141.847,131.05,141.847,127.802 M160.089,159.28c-1.833,1.583-3.623,3.123-5.372,4.621
  c-1.668,1.832-2.499,3.998-2.499,6.496s0.831,4.622,2.499,6.37c1.665,1.749,3.789,2.623,6.372,2.623
  c2.165,0,4.456-0.394,6.872-1.187c2.415-0.79,4.331-1.852,5.748-3.185L160.089,159.28z M166.337,136.546h0.25
  c1.915-0.666,3.998-2.124,6.247-4.372c2.249-2.249,3.374-4.329,3.374-6.246c0-2.248-0.75-4.122-2.249-5.62
  c-1.499-1.499-3.417-2.249-5.748-2.249c-2.499,0-4.395,0.824-5.685,2.469c-1.293,1.647-1.937,3.779-1.937,6.394
  c0,1.52,0.75,3.208,2.249,5.064C164.92,134.521,166.087,136.041,166.337,136.546"/>
<path fill="#B8B8B8" d="M4.206,69.738c0.383,0,0.733,0.062,1.048,0.185c0.315,0.124,0.588,0.288,0.819,0.492
  c0.23,0.203,0.412,0.44,0.546,0.709c0.133,0.269,0.21,0.549,0.229,0.84L6.04,72.125c-0.024,0.004-0.046,0.007-0.065,0.007
  c-0.063,0-0.123-0.017-0.179-0.051c-0.056-0.034-0.095-0.095-0.12-0.182c-0.034-0.126-0.088-0.257-0.163-0.393
  c-0.076-0.136-0.173-0.259-0.292-0.371c-0.118-0.111-0.261-0.204-0.429-0.277c-0.167-0.072-0.363-0.109-0.586-0.109
  c-0.243,0-0.461,0.039-0.655,0.117c-0.194,0.077-0.36,0.185-0.498,0.324c-0.138,0.138-0.245,0.3-0.32,0.487
  c-0.076,0.187-0.113,0.389-0.113,0.607c0,0.17,0.02,0.333,0.062,0.488c0.041,0.155,0.103,0.312,0.185,0.469
  c0.083,0.158,0.189,0.32,0.32,0.488c0.131,0.167,0.289,0.343,0.473,0.527l2.999,3.049c0.184-0.325,0.331-0.666,0.44-1.023
  c0.109-0.356,0.183-0.714,0.222-1.073c0.01-0.092,0.039-0.164,0.087-0.218c0.049-0.053,0.117-0.08,0.204-0.08h0.801
  c-0.01,0.558-0.1,1.106-0.269,1.644c-0.17,0.539-0.415,1.043-0.736,1.513l2.184,2.212H8.34c-0.141,0-0.255-0.017-0.342-0.05
  c-0.087-0.035-0.184-0.105-0.291-0.211l-1.048-1.056c-0.456,0.442-0.982,0.791-1.576,1.048c-0.594,0.257-1.248,0.386-1.961,0.386
  c-0.388,0-0.769-0.066-1.143-0.197c-0.373-0.131-0.707-0.321-1-0.571c-0.294-0.25-0.531-0.554-0.71-0.913
  C0.089,78.357,0,77.953,0,77.501c0-0.339,0.057-0.661,0.171-0.964c0.114-0.303,0.271-0.583,0.473-0.84
  c0.201-0.257,0.44-0.488,0.716-0.692c0.277-0.203,0.581-0.378,0.91-0.523c-0.296-0.374-0.514-0.737-0.655-1.092
  c-0.14-0.354-0.211-0.72-0.211-1.098c0-0.354,0.064-0.686,0.193-0.997c0.129-0.311,0.314-0.581,0.557-0.811
  c0.243-0.231,0.537-0.413,0.884-0.546C3.385,69.806,3.775,69.738,4.206,69.738 M1.317,77.399c0,0.315,0.058,0.593,0.175,0.833
  c0.116,0.24,0.269,0.443,0.458,0.608s0.405,0.289,0.648,0.374c0.242,0.085,0.49,0.128,0.742,0.128c0.543,0,1.031-0.1,1.463-0.298
  c0.432-0.199,0.813-0.464,1.142-0.793l-3.078-3.107c-0.514,0.276-0.901,0.607-1.161,0.993C1.447,76.523,1.317,76.943,1.317,77.399"
  />
<path fill="#B8B8B8" d="M10.698,80.281v-7.37h0.771c0.185,0,0.301,0.09,0.35,0.269l0.094,0.757c0.272-0.335,0.577-0.609,0.914-0.823
  c0.337-0.213,0.729-0.32,1.175-0.32c0.5,0,0.904,0.139,1.212,0.415c0.308,0.277,0.53,0.65,0.666,1.12
  c0.102-0.266,0.236-0.497,0.403-0.691c0.168-0.193,0.356-0.354,0.565-0.48c0.208-0.126,0.43-0.218,0.665-0.276
  c0.236-0.059,0.475-0.088,0.718-0.088c0.387,0,0.733,0.062,1.036,0.186c0.304,0.124,0.561,0.304,0.772,0.542
  c0.211,0.238,0.372,0.53,0.484,0.877c0.112,0.346,0.167,0.743,0.167,1.189v4.693h-1.295v-4.693c0-0.577-0.126-1.015-0.379-1.313
  c-0.252-0.298-0.618-0.448-1.098-0.448c-0.214,0-0.417,0.038-0.608,0.113c-0.192,0.075-0.361,0.186-0.506,0.331
  c-0.146,0.146-0.261,0.329-0.346,0.55c-0.085,0.22-0.127,0.476-0.127,0.767v4.693h-1.296v-4.693c0-0.592-0.118-1.033-0.356-1.324
  c-0.238-0.291-0.585-0.437-1.041-0.437c-0.32,0-0.617,0.087-0.891,0.259c-0.275,0.172-0.526,0.406-0.754,0.702v5.493H10.698z"/>
<path fill="#B8B8B8" d="M23.768,72.911v4.7c0,0.558,0.129,0.989,0.386,1.295c0.257,0.306,0.645,0.459,1.164,0.459
  c0.379,0,0.736-0.09,1.07-0.27c0.335-0.179,0.643-0.429,0.924-0.749v-5.435h1.296v7.37h-0.772c-0.184,0-0.3-0.09-0.349-0.269
  l-0.102-0.793c-0.32,0.354-0.679,0.639-1.077,0.855c-0.398,0.215-0.854,0.323-1.368,0.323c-0.403,0-0.758-0.066-1.066-0.199
  c-0.309-0.134-0.567-0.322-0.775-0.564c-0.209-0.243-0.366-0.536-0.47-0.881c-0.104-0.344-0.156-0.725-0.156-1.142v-4.7H23.768z"/>
<path fill="#B8B8B8" d="M32.975,80.397c-0.583,0-1.03-0.162-1.343-0.487c-0.313-0.325-0.469-0.793-0.469-1.405v-4.51h-0.888
  c-0.078,0-0.143-0.023-0.196-0.07c-0.054-0.046-0.081-0.117-0.081-0.214v-0.517l1.208-0.152l0.299-2.278
  c0.01-0.073,0.041-0.132,0.095-0.178c0.053-0.046,0.121-0.069,0.203-0.069h0.655v2.539h2.111v0.939h-2.111v4.423
  c0,0.311,0.076,0.541,0.226,0.691c0.15,0.151,0.344,0.226,0.582,0.226c0.136,0,0.253-0.018,0.353-0.055
  c0.099-0.036,0.186-0.076,0.258-0.12c0.073-0.043,0.135-0.083,0.186-0.12c0.051-0.036,0.096-0.054,0.135-0.054
  c0.068,0,0.128,0.041,0.181,0.123l0.379,0.619c-0.223,0.209-0.492,0.372-0.808,0.491C33.635,80.338,33.309,80.397,32.975,80.397"/>
<path fill="#B8B8B8" d="M39.088,72.794c0.441,0,0.849,0.074,1.222,0.222c0.374,0.148,0.697,0.361,0.968,0.64
  c0.272,0.279,0.484,0.624,0.637,1.033c0.153,0.411,0.229,0.877,0.229,1.401c0,0.204-0.022,0.34-0.065,0.407
  c-0.044,0.068-0.127,0.102-0.248,0.102h-4.905c0.01,0.466,0.073,0.871,0.19,1.215c0.116,0.345,0.276,0.632,0.48,0.862
  c0.204,0.231,0.446,0.403,0.728,0.517c0.281,0.114,0.596,0.171,0.946,0.171c0.325,0,0.605-0.037,0.84-0.113
  c0.236-0.075,0.438-0.156,0.608-0.244c0.17-0.087,0.312-0.168,0.425-0.243c0.115-0.076,0.213-0.113,0.295-0.113
  c0.107,0,0.19,0.041,0.248,0.124l0.364,0.472c-0.161,0.195-0.352,0.363-0.575,0.506s-0.462,0.261-0.717,0.353
  c-0.255,0.092-0.518,0.162-0.79,0.207c-0.271,0.046-0.541,0.07-0.808,0.07c-0.509,0-0.979-0.087-1.408-0.259
  c-0.429-0.172-0.801-0.424-1.114-0.756c-0.312-0.332-0.556-0.744-0.73-1.234c-0.175-0.49-0.263-1.052-0.263-1.688
  c0-0.513,0.079-0.994,0.237-1.44c0.157-0.447,0.384-0.833,0.68-1.16c0.296-0.328,0.658-0.585,1.085-0.772
  C38.074,72.888,38.554,72.794,39.088,72.794 M39.117,73.747c-0.626,0-1.119,0.181-1.478,0.542c-0.359,0.362-0.582,0.862-0.669,1.502
  h4.01c0-0.3-0.041-0.575-0.124-0.825c-0.082-0.25-0.204-0.466-0.364-0.648c-0.16-0.181-0.355-0.322-0.585-0.422
  C39.676,73.797,39.412,73.747,39.117,73.747"/>
<path fill="#B8B8B8" d="M295.042,68.785c0.382,0,0.732,0.062,1.048,0.185c0.315,0.124,0.588,0.288,0.818,0.492
  c0.23,0.203,0.412,0.44,0.546,0.709s0.21,0.549,0.229,0.84l-0.808,0.161c-0.024,0.004-0.047,0.007-0.066,0.007
  c-0.062,0-0.122-0.017-0.179-0.051c-0.055-0.034-0.095-0.095-0.119-0.182c-0.034-0.126-0.088-0.257-0.164-0.393
  c-0.075-0.136-0.172-0.259-0.291-0.371c-0.119-0.111-0.262-0.204-0.43-0.277c-0.167-0.072-0.362-0.109-0.585-0.109
  c-0.243,0-0.461,0.039-0.655,0.117c-0.194,0.077-0.36,0.185-0.499,0.324c-0.138,0.138-0.245,0.3-0.32,0.487
  s-0.112,0.389-0.112,0.607c0,0.17,0.021,0.333,0.062,0.488c0.041,0.155,0.104,0.312,0.186,0.469c0.083,0.158,0.189,0.32,0.32,0.488
  c0.131,0.167,0.289,0.343,0.474,0.527l2.998,3.049c0.185-0.325,0.331-0.666,0.44-1.023c0.109-0.356,0.183-0.714,0.222-1.073
  c0.01-0.092,0.039-0.164,0.088-0.218c0.048-0.053,0.116-0.08,0.203-0.08h0.801c-0.01,0.558-0.1,1.106-0.27,1.644
  c-0.17,0.539-0.414,1.043-0.734,1.513l2.183,2.212h-1.251c-0.142,0-0.255-0.017-0.343-0.05c-0.087-0.035-0.185-0.105-0.291-0.211
  l-1.048-1.056c-0.456,0.442-0.981,0.791-1.575,1.048c-0.595,0.257-1.249,0.386-1.962,0.386c-0.388,0-0.769-0.066-1.143-0.197
  c-0.373-0.131-0.707-0.321-1.001-0.571c-0.293-0.25-0.529-0.554-0.709-0.913c-0.181-0.359-0.27-0.764-0.27-1.215
  c0-0.339,0.057-0.661,0.171-0.964c0.114-0.303,0.271-0.583,0.474-0.84c0.201-0.257,0.439-0.488,0.717-0.692
  c0.276-0.203,0.579-0.378,0.909-0.523c-0.296-0.374-0.514-0.737-0.654-1.092c-0.142-0.354-0.212-0.72-0.212-1.098
  c0-0.354,0.064-0.686,0.193-0.997c0.128-0.311,0.314-0.581,0.557-0.811c0.242-0.231,0.537-0.413,0.884-0.546
  C294.22,68.852,294.609,68.785,295.042,68.785 M292.152,76.446c0,0.315,0.059,0.593,0.175,0.833c0.116,0.24,0.27,0.443,0.458,0.608
  c0.189,0.165,0.405,0.289,0.648,0.374c0.242,0.085,0.49,0.128,0.742,0.128c0.543,0,1.03-0.1,1.463-0.298
  c0.432-0.199,0.812-0.464,1.143-0.793l-3.079-3.107c-0.514,0.276-0.901,0.607-1.16,0.993
  C292.282,75.57,292.152,75.99,292.152,76.446"/>
<path fill="#B8B8B8" d="M302.654,71.958v4.7c0,0.558,0.128,0.989,0.386,1.295c0.257,0.306,0.645,0.459,1.164,0.459
  c0.379,0,0.735-0.09,1.07-0.27c0.334-0.179,0.643-0.429,0.924-0.749v-5.435h1.296v7.37h-0.771c-0.185,0-0.302-0.09-0.35-0.269
  l-0.102-0.793c-0.32,0.354-0.68,0.639-1.077,0.855c-0.398,0.215-0.854,0.323-1.368,0.323c-0.403,0-0.759-0.066-1.067-0.199
  c-0.308-0.134-0.565-0.322-0.774-0.564c-0.209-0.243-0.365-0.536-0.47-0.881c-0.104-0.344-0.156-0.725-0.156-1.142v-4.7H302.654z"/>
<path fill="#B8B8B8" d="M309.625,79.328v-7.37h0.771c0.186,0,0.302,0.09,0.351,0.269l0.102,0.8c0.32-0.354,0.678-0.64,1.073-0.858
  c0.396-0.218,0.852-0.328,1.372-0.328c0.402,0,0.758,0.067,1.066,0.2c0.308,0.134,0.565,0.323,0.771,0.568
  c0.206,0.245,0.362,0.54,0.469,0.884c0.107,0.344,0.16,0.725,0.16,1.142v4.693h-1.295v-4.693c0-0.557-0.128-0.991-0.382-1.298
  c-0.255-0.308-0.646-0.463-1.168-0.463c-0.384,0-0.741,0.093-1.074,0.277c-0.332,0.184-0.639,0.434-0.92,0.749v5.428H309.625z"/>
<path fill="#B8B8B8" d="M322.908,79.328c-0.185,0-0.302-0.09-0.35-0.269l-0.116-0.895c-0.316,0.383-0.676,0.69-1.081,0.92
  c-0.405,0.231-0.87,0.346-1.394,0.346c-0.422,0-0.806-0.082-1.15-0.244c-0.344-0.162-0.638-0.401-0.88-0.717
  c-0.243-0.315-0.43-0.708-0.562-1.178c-0.13-0.471-0.195-1.012-0.195-1.623c0-0.543,0.071-1.049,0.218-1.517
  c0.145-0.468,0.355-0.874,0.63-1.218c0.273-0.345,0.607-0.615,1-0.812c0.394-0.196,0.84-0.294,1.34-0.294
  c0.451,0,0.837,0.076,1.157,0.229c0.32,0.153,0.606,0.368,0.858,0.644v-4.089h1.296v10.717H322.908z M320.397,78.382
  c0.422,0,0.792-0.097,1.109-0.291s0.61-0.468,0.877-0.822v-3.565c-0.237-0.321-0.498-0.545-0.782-0.673s-0.598-0.193-0.942-0.193
  c-0.689,0-1.218,0.245-1.587,0.735c-0.368,0.49-0.553,1.188-0.553,2.095c0,0.481,0.041,0.891,0.123,1.234
  c0.083,0.341,0.204,0.623,0.364,0.843c0.16,0.221,0.356,0.382,0.59,0.484C319.829,78.331,320.095,78.382,320.397,78.382"/>
<path fill="#B8B8B8" d="M328.839,71.841c0.538,0,1.024,0.09,1.459,0.269c0.434,0.18,0.803,0.434,1.105,0.764
  c0.304,0.33,0.536,0.729,0.699,1.197c0.162,0.468,0.244,0.991,0.244,1.568c0,0.582-0.082,1.106-0.244,1.571
  c-0.163,0.466-0.396,0.864-0.699,1.194c-0.303,0.329-0.672,0.583-1.105,0.76c-0.435,0.177-0.921,0.266-1.459,0.266
  c-0.539,0-1.025-0.089-1.46-0.266c-0.434-0.177-0.804-0.431-1.109-0.76c-0.306-0.33-0.541-0.728-0.706-1.194
  c-0.165-0.465-0.247-0.989-0.247-1.571c0-0.577,0.082-1.1,0.247-1.568c0.165-0.468,0.4-0.867,0.706-1.197s0.676-0.584,1.109-0.764
  C327.814,71.931,328.3,71.841,328.839,71.841 M328.839,78.418c0.728,0,1.271-0.244,1.63-0.731c0.358-0.487,0.538-1.168,0.538-2.041
  c0-0.877-0.18-1.561-0.538-2.052c-0.358-0.489-0.902-0.734-1.63-0.734c-0.369,0-0.689,0.063-0.961,0.189s-0.499,0.308-0.681,0.545
  c-0.182,0.238-0.317,0.531-0.407,0.877c-0.09,0.347-0.135,0.739-0.135,1.175c0,0.437,0.045,0.827,0.135,1.171
  c0.09,0.345,0.226,0.635,0.407,0.87s0.409,0.416,0.681,0.542S328.47,78.418,328.839,78.418"/>
<path fill="#B8B8B8" d="M333.948,79.328v-7.37h0.771c0.186,0,0.302,0.09,0.351,0.269l0.102,0.8c0.32-0.354,0.678-0.64,1.073-0.858
  c0.396-0.218,0.853-0.328,1.372-0.328c0.402,0,0.758,0.067,1.066,0.2c0.308,0.134,0.565,0.323,0.771,0.568
  c0.206,0.245,0.362,0.54,0.469,0.884c0.107,0.344,0.16,0.725,0.16,1.142v4.693h-1.295v-4.693c0-0.557-0.128-0.991-0.382-1.298
  c-0.255-0.308-0.645-0.463-1.168-0.463c-0.384,0-0.741,0.093-1.074,0.277c-0.332,0.184-0.639,0.434-0.92,0.749v5.428H333.948z"/>
<path fill="#B8B8B8" d="M344.958,71.841c0.441,0,0.85,0.074,1.223,0.222c0.374,0.148,0.696,0.361,0.969,0.64
  c0.271,0.279,0.483,0.624,0.637,1.033c0.152,0.411,0.229,0.877,0.229,1.401c0,0.204-0.021,0.34-0.065,0.407
  c-0.043,0.068-0.126,0.102-0.247,0.102h-4.905c0.01,0.466,0.073,0.871,0.189,1.215c0.116,0.345,0.276,0.632,0.479,0.862
  c0.204,0.231,0.447,0.403,0.729,0.517c0.281,0.114,0.597,0.171,0.946,0.171c0.325,0,0.604-0.037,0.841-0.113
  c0.234-0.075,0.438-0.156,0.607-0.244c0.169-0.087,0.312-0.168,0.426-0.243c0.113-0.076,0.212-0.113,0.295-0.113
  c0.106,0,0.188,0.041,0.247,0.124l0.364,0.472c-0.16,0.195-0.353,0.363-0.575,0.506c-0.224,0.143-0.463,0.261-0.717,0.353
  c-0.255,0.092-0.519,0.162-0.79,0.207c-0.271,0.046-0.541,0.07-0.808,0.07c-0.51,0-0.979-0.087-1.408-0.259
  c-0.43-0.172-0.801-0.424-1.114-0.756c-0.312-0.332-0.556-0.744-0.73-1.234c-0.175-0.49-0.263-1.052-0.263-1.688
  c0-0.513,0.079-0.994,0.237-1.44c0.157-0.447,0.384-0.833,0.68-1.16c0.296-0.328,0.658-0.585,1.085-0.772
  C343.945,71.935,344.425,71.841,344.958,71.841 M344.988,72.794c-0.626,0-1.118,0.181-1.479,0.542
  c-0.357,0.362-0.582,0.862-0.668,1.502h4.01c0-0.3-0.041-0.575-0.124-0.825c-0.082-0.25-0.203-0.466-0.363-0.648
  c-0.16-0.181-0.355-0.322-0.586-0.422C345.547,72.844,345.284,72.794,344.988,72.794"/>
<path fill="#B8B8B8" d="M11.888,236.5c0.383,0,0.733,0.062,1.048,0.186c0.315,0.123,0.588,0.288,0.819,0.491
  c0.23,0.203,0.412,0.439,0.546,0.709c0.133,0.27,0.21,0.549,0.229,0.84l-0.808,0.16c-0.024,0.005-0.046,0.008-0.065,0.008
  c-0.063,0-0.123-0.018-0.179-0.051c-0.056-0.034-0.095-0.095-0.12-0.183c-0.034-0.126-0.088-0.257-0.163-0.393
  c-0.076-0.136-0.173-0.26-0.292-0.371c-0.118-0.111-0.261-0.204-0.429-0.276c-0.167-0.073-0.363-0.109-0.586-0.109
  c-0.243,0-0.461,0.039-0.655,0.116c-0.194,0.078-0.36,0.186-0.498,0.324c-0.138,0.139-0.245,0.301-0.32,0.487
  c-0.076,0.187-0.113,0.39-0.113,0.607c0,0.17,0.02,0.332,0.062,0.487c0.041,0.155,0.103,0.312,0.185,0.47
  c0.083,0.157,0.189,0.32,0.32,0.487s0.289,0.344,0.473,0.527l2.999,3.049c0.184-0.325,0.331-0.666,0.44-1.022
  c0.109-0.356,0.183-0.714,0.222-1.073c0.01-0.092,0.039-0.164,0.087-0.218c0.049-0.054,0.117-0.08,0.204-0.08h0.801
  c-0.01,0.558-0.1,1.105-0.269,1.644c-0.17,0.539-0.415,1.043-0.736,1.514l2.184,2.212h-1.252c-0.141,0-0.255-0.017-0.342-0.051
  s-0.184-0.104-0.291-0.211l-1.048-1.055c-0.456,0.441-0.982,0.79-1.576,1.047c-0.594,0.258-1.248,0.386-1.961,0.386
  c-0.388,0-0.769-0.065-1.143-0.196c-0.373-0.131-0.707-0.321-1-0.571c-0.294-0.25-0.531-0.554-0.71-0.913
  c-0.18-0.358-0.269-0.764-0.269-1.215c0-0.34,0.057-0.661,0.171-0.964c0.114-0.303,0.271-0.583,0.473-0.841
  c0.201-0.257,0.44-0.487,0.716-0.69c0.277-0.204,0.581-0.379,0.91-0.524c-0.296-0.373-0.514-0.737-0.655-1.091
  c-0.14-0.354-0.211-0.72-0.211-1.099c0-0.354,0.064-0.687,0.193-0.996c0.129-0.312,0.314-0.582,0.557-0.812
  c0.243-0.229,0.537-0.412,0.884-0.545C11.067,236.567,11.457,236.5,11.888,236.5 M8.999,244.162c0,0.315,0.058,0.593,0.175,0.833
  c0.116,0.24,0.269,0.442,0.458,0.607c0.189,0.165,0.405,0.29,0.648,0.375c0.242,0.085,0.49,0.127,0.742,0.127
  c0.543,0,1.031-0.1,1.463-0.299c0.432-0.198,0.813-0.463,1.142-0.793l-3.078-3.106c-0.514,0.277-0.901,0.607-1.161,0.993
  C9.129,243.285,8.999,243.706,8.999,244.162"/>
<path fill="#B8B8B8" d="M18.38,247.042v-7.37h0.742c0.141,0,0.238,0.026,0.292,0.08c0.053,0.054,0.089,0.145,0.109,0.276
  l0.087,1.149c0.252-0.514,0.564-0.915,0.935-1.204c0.371-0.288,0.807-0.433,1.307-0.433c0.203,0,0.388,0.021,0.552,0.069
  c0.165,0.046,0.318,0.11,0.459,0.192l-0.167,0.968c-0.034,0.121-0.109,0.182-0.226,0.182c-0.068,0-0.172-0.022-0.313-0.069
  c-0.141-0.046-0.337-0.068-0.589-0.068c-0.452,0-0.829,0.131-1.132,0.393c-0.303,0.262-0.557,0.643-0.761,1.143v4.692H18.38z"/>
<path fill="#B8B8B8" d="M27.165,239.556c0.441,0,0.849,0.074,1.222,0.222c0.374,0.148,0.697,0.361,0.968,0.641
  c0.272,0.277,0.484,0.623,0.637,1.033c0.153,0.409,0.229,0.876,0.229,1.4c0,0.203-0.022,0.339-0.065,0.407
  c-0.044,0.068-0.127,0.102-0.248,0.102h-4.905c0.01,0.466,0.073,0.871,0.19,1.215c0.116,0.345,0.276,0.632,0.48,0.862
  s0.446,0.403,0.728,0.517c0.281,0.114,0.596,0.171,0.946,0.171c0.325,0,0.605-0.037,0.84-0.112c0.236-0.075,0.438-0.156,0.608-0.244
  c0.17-0.087,0.312-0.168,0.425-0.243c0.115-0.075,0.213-0.113,0.295-0.113c0.107,0,0.19,0.041,0.248,0.124l0.364,0.473
  c-0.161,0.194-0.352,0.362-0.575,0.506c-0.223,0.143-0.462,0.261-0.717,0.353c-0.255,0.093-0.518,0.161-0.79,0.208
  c-0.271,0.046-0.541,0.068-0.808,0.068c-0.509,0-0.979-0.086-1.408-0.258c-0.429-0.172-0.801-0.425-1.114-0.757
  c-0.312-0.332-0.556-0.743-0.73-1.233c-0.175-0.489-0.263-1.053-0.263-1.688c0-0.515,0.079-0.994,0.237-1.44
  c0.157-0.447,0.384-0.833,0.68-1.161c0.296-0.327,0.658-0.584,1.085-0.771C26.15,239.649,26.63,239.556,27.165,239.556
   M27.193,240.509c-0.626,0-1.119,0.181-1.478,0.542s-0.582,0.862-0.669,1.502h4.01c0-0.301-0.041-0.576-0.124-0.825
  c-0.082-0.25-0.204-0.466-0.364-0.647c-0.16-0.183-0.355-0.323-0.585-0.423C27.752,240.559,27.488,240.509,27.193,240.509"/>
<path fill="#B8B8B8" d="M31.873,247.042v-7.37h0.771c0.185,0,0.301,0.09,0.35,0.27l0.094,0.756c0.272-0.334,0.577-0.608,0.914-0.821
  c0.337-0.214,0.729-0.32,1.175-0.32c0.5,0,0.904,0.138,1.212,0.414c0.308,0.277,0.53,0.65,0.666,1.121
  c0.102-0.267,0.236-0.497,0.403-0.691c0.168-0.194,0.356-0.354,0.565-0.48c0.208-0.126,0.43-0.218,0.665-0.276
  c0.236-0.058,0.475-0.087,0.718-0.087c0.387,0,0.733,0.062,1.036,0.186c0.304,0.123,0.561,0.304,0.772,0.542
  c0.211,0.237,0.372,0.529,0.484,0.877c0.112,0.347,0.167,0.743,0.167,1.189v4.692h-1.295v-4.692c0-0.578-0.126-1.016-0.379-1.313
  c-0.252-0.299-0.618-0.447-1.098-0.447c-0.214,0-0.417,0.037-0.608,0.112c-0.192,0.075-0.361,0.186-0.506,0.331
  c-0.146,0.146-0.261,0.329-0.346,0.55c-0.085,0.221-0.127,0.477-0.127,0.768v4.692h-1.296v-4.692c0-0.592-0.118-1.033-0.356-1.324
  s-0.585-0.437-1.041-0.437c-0.32,0-0.617,0.086-0.891,0.258c-0.275,0.173-0.526,0.406-0.754,0.702v5.493H31.873z"/>
<path fill="#B8B8B8" d="M46.806,239.556c0.539,0,1.025,0.09,1.459,0.269c0.435,0.18,0.803,0.435,1.106,0.765
  c0.304,0.329,0.537,0.729,0.699,1.196c0.163,0.469,0.244,0.992,0.244,1.568c0,0.582-0.081,1.105-0.244,1.571
  c-0.162,0.466-0.395,0.863-0.699,1.193c-0.303,0.33-0.671,0.583-1.106,0.76c-0.434,0.178-0.92,0.266-1.459,0.266
  s-1.025-0.088-1.459-0.266c-0.435-0.177-0.804-0.43-1.11-0.76c-0.306-0.33-0.541-0.728-0.706-1.193s-0.247-0.989-0.247-1.571
  c0-0.576,0.082-1.1,0.247-1.568c0.165-0.468,0.4-0.867,0.706-1.196c0.306-0.33,0.675-0.585,1.11-0.765
  C45.781,239.646,46.267,239.556,46.806,239.556 M46.806,246.133c0.728,0,1.271-0.244,1.63-0.73c0.359-0.488,0.539-1.169,0.539-2.041
  c0-0.879-0.18-1.562-0.539-2.053c-0.359-0.488-0.902-0.734-1.63-0.734c-0.369,0-0.689,0.062-0.96,0.188
  c-0.272,0.127-0.499,0.309-0.681,0.546c-0.182,0.238-0.318,0.53-0.408,0.877c-0.09,0.347-0.134,0.738-0.134,1.176
  c0,0.436,0.044,0.826,0.134,1.171c0.09,0.344,0.226,0.634,0.408,0.87c0.182,0.234,0.409,0.415,0.681,0.542
  C46.117,246.071,46.437,246.133,46.806,246.133"/>
<path fill="#B8B8B8" d="M50.794,239.672h1.062c0.103,0,0.188,0.026,0.255,0.08c0.068,0.054,0.117,0.116,0.146,0.189l1.87,4.743
  c0.068,0.174,0.122,0.35,0.161,0.524c0.038,0.174,0.075,0.347,0.109,0.517c0.039-0.17,0.08-0.343,0.124-0.517
  c0.043-0.175,0.099-0.351,0.167-0.524l1.892-4.743c0.029-0.078,0.076-0.143,0.142-0.193c0.065-0.051,0.147-0.076,0.244-0.076h1.011
  l-3.005,7.37H53.8L50.794,239.672z"/>
<path fill="#B8B8B8" d="M61.908,239.556c0.441,0,0.849,0.074,1.222,0.222c0.374,0.148,0.697,0.361,0.968,0.641
  c0.272,0.277,0.484,0.623,0.637,1.033c0.153,0.409,0.229,0.876,0.229,1.4c0,0.203-0.022,0.339-0.065,0.407
  c-0.044,0.068-0.127,0.102-0.248,0.102h-4.905c0.01,0.466,0.073,0.871,0.19,1.215c0.116,0.345,0.276,0.632,0.48,0.862
  s0.446,0.403,0.728,0.517c0.281,0.114,0.596,0.171,0.946,0.171c0.325,0,0.605-0.037,0.84-0.112c0.236-0.075,0.438-0.156,0.608-0.244
  c0.17-0.087,0.312-0.168,0.425-0.243c0.115-0.075,0.213-0.113,0.295-0.113c0.107,0,0.19,0.041,0.248,0.124l0.364,0.473
  c-0.161,0.194-0.352,0.362-0.575,0.506c-0.223,0.143-0.462,0.261-0.717,0.353c-0.255,0.093-0.518,0.161-0.79,0.208
  c-0.271,0.046-0.541,0.068-0.808,0.068c-0.509,0-0.979-0.086-1.408-0.258c-0.429-0.172-0.801-0.425-1.114-0.757
  c-0.312-0.332-0.556-0.743-0.73-1.233c-0.175-0.489-0.263-1.053-0.263-1.688c0-0.515,0.079-0.994,0.237-1.44
  c0.157-0.447,0.384-0.833,0.68-1.161c0.296-0.327,0.658-0.584,1.085-0.771C60.894,239.649,61.374,239.556,61.908,239.556
   M61.937,240.509c-0.626,0-1.119,0.181-1.478,0.542s-0.582,0.862-0.669,1.502h4.01c0-0.301-0.041-0.576-0.124-0.825
  c-0.082-0.25-0.204-0.466-0.364-0.647c-0.16-0.183-0.355-0.323-0.585-0.423C62.496,240.559,62.232,240.509,61.937,240.509"/>
<path fill="#B8B8B8" d="M297.75,236.5c0.383,0,0.732,0.062,1.049,0.186c0.314,0.123,0.587,0.288,0.817,0.491
  s0.412,0.439,0.546,0.709s0.21,0.549,0.229,0.84l-0.808,0.16c-0.024,0.005-0.047,0.008-0.066,0.008
  c-0.062,0-0.122-0.018-0.179-0.051c-0.055-0.034-0.095-0.095-0.119-0.183c-0.034-0.126-0.088-0.257-0.164-0.393
  c-0.075-0.136-0.172-0.26-0.291-0.371s-0.262-0.204-0.43-0.276c-0.167-0.073-0.362-0.109-0.585-0.109
  c-0.243,0-0.461,0.039-0.655,0.116c-0.194,0.078-0.36,0.186-0.499,0.324c-0.138,0.139-0.245,0.301-0.32,0.487
  s-0.112,0.39-0.112,0.607c0,0.17,0.021,0.332,0.062,0.487s0.104,0.312,0.186,0.47c0.083,0.157,0.189,0.32,0.32,0.487
  s0.289,0.344,0.474,0.527l2.998,3.049c0.185-0.325,0.331-0.666,0.44-1.022s0.183-0.714,0.222-1.073
  c0.01-0.092,0.039-0.164,0.088-0.218c0.048-0.054,0.116-0.08,0.203-0.08h0.801c-0.01,0.558-0.1,1.105-0.27,1.644
  c-0.17,0.539-0.414,1.043-0.734,1.514l2.183,2.212h-1.251c-0.142,0-0.255-0.017-0.343-0.051c-0.087-0.034-0.185-0.104-0.291-0.211
  l-1.048-1.055c-0.456,0.441-0.981,0.79-1.575,1.047c-0.595,0.258-1.249,0.386-1.962,0.386c-0.388,0-0.769-0.065-1.143-0.196
  c-0.373-0.131-0.707-0.321-1.001-0.571c-0.293-0.25-0.529-0.554-0.709-0.913c-0.18-0.358-0.27-0.764-0.27-1.215
  c0-0.34,0.057-0.661,0.171-0.964s0.271-0.583,0.474-0.841c0.201-0.257,0.439-0.487,0.717-0.69c0.276-0.204,0.579-0.379,0.909-0.524
  c-0.296-0.373-0.514-0.737-0.654-1.091c-0.142-0.354-0.212-0.72-0.212-1.099c0-0.354,0.064-0.687,0.193-0.996
  c0.128-0.312,0.314-0.582,0.557-0.812c0.242-0.229,0.537-0.412,0.884-0.545C296.929,236.567,297.318,236.5,297.75,236.5
   M294.861,244.162c0,0.315,0.059,0.593,0.175,0.833s0.27,0.442,0.458,0.607c0.189,0.165,0.405,0.29,0.648,0.375
  c0.242,0.085,0.49,0.127,0.742,0.127c0.543,0,1.03-0.1,1.463-0.299c0.432-0.198,0.812-0.463,1.143-0.793l-3.079-3.106
  c-0.514,0.277-0.901,0.607-1.16,0.993C294.991,243.285,294.861,243.706,294.861,244.162"/>
<path fill="#B8B8B8" d="M309.657,247.042h-0.575c-0.126,0-0.229-0.02-0.306-0.059c-0.078-0.038-0.128-0.121-0.153-0.247
  l-0.146-0.684c-0.193,0.176-0.383,0.331-0.567,0.469c-0.185,0.139-0.378,0.255-0.582,0.35s-0.421,0.166-0.651,0.215
  c-0.23,0.048-0.485,0.072-0.768,0.072c-0.287,0-0.555-0.04-0.805-0.12s-0.467-0.201-0.651-0.361
  c-0.185-0.161-0.331-0.364-0.44-0.609c-0.108-0.246-0.163-0.537-0.163-0.873c0-0.292,0.08-0.573,0.24-0.842
  c0.159-0.271,0.418-0.511,0.774-0.721c0.356-0.209,0.824-0.381,1.401-0.515s1.283-0.2,2.117-0.2v-0.579
  c0-0.575-0.122-1.011-0.367-1.307c-0.245-0.295-0.607-0.442-1.088-0.442c-0.315,0-0.581,0.04-0.797,0.12s-0.403,0.17-0.561,0.27
  c-0.157,0.099-0.294,0.188-0.407,0.269c-0.114,0.08-0.228,0.12-0.339,0.12c-0.087,0-0.163-0.023-0.229-0.069
  c-0.065-0.046-0.117-0.103-0.156-0.171l-0.232-0.415c0.407-0.393,0.847-0.686,1.317-0.88s0.992-0.291,1.564-0.291
  c0.412,0,0.778,0.067,1.099,0.203c0.32,0.137,0.59,0.325,0.808,0.568c0.219,0.242,0.384,0.535,0.495,0.88s0.168,0.723,0.168,1.135
  V247.042z M306.294,246.25c0.229,0,0.438-0.023,0.626-0.069s0.367-0.111,0.534-0.196c0.168-0.085,0.328-0.188,0.48-0.31
  c0.153-0.121,0.302-0.259,0.447-0.414v-1.521c-0.597,0-1.104,0.037-1.521,0.114c-0.417,0.074-0.757,0.173-1.019,0.295
  c-0.263,0.122-0.453,0.267-0.57,0.432c-0.12,0.166-0.18,0.352-0.18,0.557c0,0.195,0.031,0.363,0.095,0.505
  c0.062,0.142,0.147,0.258,0.255,0.348c0.106,0.09,0.232,0.156,0.378,0.198C305.966,246.229,306.125,246.25,306.294,246.25"/>
<path fill="#B8B8B8" d="M316.81,247.042c-0.185,0-0.302-0.091-0.35-0.27l-0.116-0.895c-0.315,0.383-0.676,0.69-1.081,0.92
  c-0.405,0.23-0.87,0.346-1.394,0.346c-0.422,0-0.806-0.081-1.15-0.243c-0.344-0.163-0.638-0.401-0.88-0.717
  c-0.243-0.316-0.43-0.708-0.561-1.179c-0.131-0.472-0.196-1.013-0.196-1.622c0-0.544,0.072-1.049,0.218-1.518
  c0.146-0.468,0.355-0.874,0.63-1.219c0.273-0.344,0.607-0.614,1-0.811c0.394-0.197,0.84-0.295,1.34-0.295
  c0.451,0,0.837,0.075,1.157,0.229c0.32,0.152,0.606,0.367,0.858,0.644v-4.09h1.296v10.718H316.81z M314.299,246.096
  c0.422,0,0.792-0.097,1.109-0.291c0.317-0.193,0.61-0.468,0.877-0.821v-3.565c-0.237-0.32-0.498-0.544-0.782-0.673
  s-0.598-0.193-0.942-0.193c-0.689,0-1.218,0.245-1.587,0.735c-0.368,0.49-0.553,1.188-0.553,2.096c0,0.479,0.041,0.891,0.123,1.232
  c0.083,0.343,0.204,0.624,0.364,0.845c0.161,0.221,0.356,0.382,0.59,0.483C313.731,246.045,313.998,246.096,314.299,246.096"/>
<path fill="#B8B8B8" d="M324.947,247.042c-0.185,0-0.302-0.091-0.35-0.27l-0.116-0.895c-0.315,0.383-0.676,0.69-1.081,0.92
  c-0.405,0.23-0.87,0.346-1.394,0.346c-0.422,0-0.806-0.081-1.15-0.243c-0.344-0.163-0.638-0.401-0.88-0.717
  c-0.243-0.316-0.43-0.708-0.561-1.179c-0.131-0.472-0.196-1.013-0.196-1.622c0-0.544,0.072-1.049,0.218-1.518
  c0.146-0.468,0.355-0.874,0.63-1.219c0.273-0.344,0.607-0.614,1-0.811c0.394-0.197,0.84-0.295,1.34-0.295
  c0.451,0,0.837,0.075,1.157,0.229c0.32,0.152,0.606,0.367,0.858,0.644v-4.09h1.296v10.718H324.947z M322.436,246.096
  c0.422,0,0.792-0.097,1.109-0.291c0.317-0.193,0.61-0.468,0.877-0.821v-3.565c-0.237-0.32-0.498-0.544-0.782-0.673
  s-0.598-0.193-0.942-0.193c-0.689,0-1.218,0.245-1.587,0.735c-0.368,0.49-0.553,1.188-0.553,2.096c0,0.479,0.041,0.891,0.123,1.232
  c0.083,0.343,0.204,0.624,0.364,0.845c0.161,0.221,0.356,0.382,0.59,0.483C321.868,246.045,322.134,246.096,322.436,246.096"/>
<path fill="#B8B8B8" d="M132.238,0.174c0.383,0,0.733,0.062,1.048,0.185c0.315,0.124,0.588,0.288,0.819,0.492
  c0.23,0.203,0.412,0.44,0.546,0.709c0.133,0.269,0.21,0.549,0.229,0.84l-0.808,0.161c-0.024,0.004-0.046,0.007-0.065,0.007
  c-0.063,0-0.123-0.017-0.179-0.051c-0.056-0.034-0.095-0.095-0.12-0.182c-0.034-0.126-0.088-0.257-0.163-0.393
  c-0.076-0.136-0.173-0.259-0.292-0.371c-0.118-0.111-0.261-0.204-0.429-0.277c-0.167-0.072-0.363-0.109-0.586-0.109
  c-0.243,0-0.461,0.039-0.655,0.117c-0.194,0.077-0.36,0.185-0.498,0.324c-0.138,0.138-0.245,0.3-0.32,0.487
  c-0.076,0.187-0.113,0.389-0.113,0.607c0,0.17,0.02,0.333,0.062,0.488c0.041,0.155,0.103,0.312,0.185,0.469
  c0.083,0.158,0.189,0.32,0.32,0.488c0.131,0.167,0.289,0.343,0.473,0.527l2.999,3.049c0.184-0.325,0.331-0.666,0.44-1.023
  c0.109-0.356,0.183-0.714,0.222-1.073c0.01-0.092,0.039-0.164,0.087-0.218c0.049-0.053,0.117-0.08,0.204-0.08h0.801
  c-0.01,0.558-0.1,1.106-0.269,1.644c-0.17,0.539-0.415,1.043-0.736,1.513l2.184,2.212h-1.252c-0.141,0-0.255-0.017-0.342-0.05
  c-0.087-0.035-0.184-0.105-0.291-0.211l-1.048-1.056c-0.456,0.442-0.982,0.791-1.576,1.048c-0.594,0.257-1.248,0.386-1.961,0.386
  c-0.388,0-0.769-0.066-1.143-0.197c-0.373-0.131-0.707-0.321-1-0.571c-0.294-0.25-0.531-0.554-0.71-0.913
  c-0.18-0.359-0.269-0.764-0.269-1.215c0-0.339,0.057-0.661,0.171-0.964c0.114-0.303,0.271-0.583,0.473-0.84
  c0.201-0.257,0.44-0.488,0.716-0.692c0.277-0.203,0.581-0.378,0.91-0.523c-0.296-0.374-0.514-0.737-0.655-1.092
  c-0.14-0.354-0.211-0.72-0.211-1.098c0-0.354,0.064-0.686,0.193-0.997c0.129-0.311,0.314-0.581,0.557-0.811
  c0.243-0.231,0.537-0.413,0.884-0.546C131.417,0.242,131.807,0.174,132.238,0.174 M129.349,7.835c0,0.315,0.058,0.593,0.175,0.833
  c0.116,0.24,0.269,0.443,0.458,0.608s0.405,0.289,0.648,0.374c0.242,0.085,0.49,0.128,0.742,0.128c0.543,0,1.031-0.1,1.463-0.298
  c0.432-0.199,0.813-0.464,1.142-0.793l-3.078-3.107c-0.514,0.276-0.901,0.607-1.161,0.993
  C129.479,6.959,129.349,7.379,129.349,7.835"/>
<path fill="#B8B8B8" d="M143.758,4.656c-0.039,0.053-0.078,0.095-0.116,0.124c-0.039,0.029-0.095,0.043-0.168,0.043
  c-0.072,0-0.152-0.03-0.236-0.091c-0.085-0.06-0.193-0.127-0.324-0.2c-0.131-0.072-0.29-0.139-0.477-0.2
  c-0.187-0.06-0.416-0.091-0.687-0.091c-0.36,0-0.678,0.064-0.954,0.193c-0.276,0.129-0.508,0.314-0.695,0.556
  c-0.187,0.243-0.327,0.537-0.422,0.881c-0.095,0.345-0.142,0.73-0.142,1.157c0,0.446,0.051,0.843,0.153,1.19
  c0.102,0.346,0.245,0.637,0.429,0.873c0.184,0.235,0.409,0.414,0.674,0.538c0.264,0.124,0.561,0.185,0.891,0.185
  c0.315,0,0.575-0.037,0.779-0.113c0.204-0.075,0.373-0.158,0.509-0.251c0.136-0.091,0.247-0.175,0.335-0.251
  c0.087-0.075,0.175-0.112,0.262-0.112c0.111,0,0.194,0.041,0.248,0.124l0.363,0.472c-0.32,0.393-0.72,0.681-1.201,0.863
  c-0.48,0.181-0.987,0.273-1.521,0.273c-0.461,0-0.889-0.085-1.284-0.255c-0.395-0.17-0.739-0.416-1.03-0.739
  c-0.291-0.322-0.52-0.719-0.688-1.19c-0.167-0.47-0.251-1.006-0.251-1.607c0-0.548,0.076-1.055,0.229-1.521
  c0.153-0.465,0.376-0.867,0.67-1.204c0.294-0.337,0.656-0.6,1.088-0.789c0.432-0.19,0.927-0.284,1.485-0.284
  c0.514,0,0.97,0.084,1.368,0.251s0.75,0.404,1.055,0.709L143.758,4.656z"/>
<path fill="#B8B8B8" d="M148.511,3.23c0.539,0,1.025,0.09,1.459,0.269c0.435,0.18,0.803,0.434,1.106,0.764
  c0.304,0.33,0.537,0.729,0.699,1.197c0.163,0.468,0.244,0.991,0.244,1.568c0,0.582-0.081,1.106-0.244,1.571
  c-0.162,0.466-0.395,0.864-0.699,1.194c-0.303,0.329-0.671,0.583-1.106,0.76c-0.434,0.177-0.92,0.266-1.459,0.266
  s-1.025-0.089-1.459-0.266c-0.435-0.177-0.804-0.431-1.11-0.76c-0.306-0.33-0.541-0.728-0.706-1.194
  c-0.165-0.465-0.247-0.989-0.247-1.571c0-0.577,0.082-1.1,0.247-1.568c0.165-0.468,0.4-0.867,0.706-1.197
  c0.306-0.33,0.675-0.584,1.11-0.764C147.486,3.32,147.972,3.23,148.511,3.23 M148.511,9.807c0.728,0,1.271-0.244,1.63-0.731
  s0.539-1.168,0.539-2.041c0-0.877-0.18-1.561-0.539-2.052c-0.359-0.489-0.902-0.734-1.63-0.734c-0.369,0-0.689,0.063-0.96,0.189
  c-0.272,0.126-0.499,0.308-0.681,0.545c-0.182,0.238-0.318,0.531-0.408,0.877c-0.09,0.347-0.134,0.739-0.134,1.175
  c0,0.437,0.044,0.827,0.134,1.171c0.09,0.345,0.226,0.635,0.408,0.87c0.182,0.235,0.409,0.416,0.681,0.542
  C147.822,9.744,148.142,9.807,148.511,9.807"/>
<path fill="#B8B8B8" d="M153.62,10.717v-7.37h0.771c0.185,0,0.301,0.09,0.35,0.269l0.094,0.757c0.272-0.335,0.577-0.609,0.914-0.823
  c0.337-0.213,0.729-0.32,1.175-0.32c0.5,0,0.904,0.139,1.212,0.415c0.308,0.277,0.53,0.65,0.666,1.12
  c0.102-0.266,0.236-0.497,0.403-0.691c0.168-0.193,0.356-0.354,0.565-0.48c0.208-0.126,0.43-0.218,0.665-0.276
  c0.236-0.059,0.475-0.088,0.718-0.088c0.387,0,0.733,0.062,1.036,0.186c0.304,0.124,0.561,0.304,0.772,0.542
  c0.211,0.238,0.372,0.53,0.484,0.877c0.112,0.346,0.167,0.743,0.167,1.189v4.693h-1.295V6.024c0-0.577-0.126-1.015-0.379-1.313
  c-0.252-0.298-0.618-0.448-1.098-0.448c-0.214,0-0.417,0.038-0.608,0.113c-0.192,0.075-0.361,0.186-0.506,0.331
  c-0.146,0.146-0.261,0.329-0.346,0.55c-0.085,0.22-0.127,0.476-0.127,0.767v4.693h-1.296V6.024c0-0.592-0.118-1.033-0.356-1.324
  c-0.238-0.291-0.585-0.437-1.041-0.437c-0.32,0-0.617,0.087-0.891,0.259c-0.275,0.172-0.526,0.406-0.754,0.702v5.493H153.62z"/>
<path fill="#B8B8B8" d="M165.569,10.717v-7.37h0.771c0.185,0,0.301,0.09,0.35,0.269l0.094,0.757
  c0.272-0.335,0.577-0.609,0.914-0.823c0.337-0.213,0.729-0.32,1.175-0.32c0.5,0,0.904,0.139,1.212,0.415
  c0.308,0.277,0.53,0.65,0.666,1.12c0.102-0.266,0.236-0.497,0.403-0.691c0.168-0.193,0.356-0.354,0.565-0.48
  c0.208-0.126,0.43-0.218,0.665-0.276c0.236-0.059,0.475-0.088,0.718-0.088c0.388,0,0.733,0.062,1.036,0.186
  c0.304,0.124,0.561,0.304,0.771,0.542c0.211,0.238,0.373,0.53,0.484,0.877c0.111,0.346,0.168,0.743,0.168,1.189v4.693h-1.296V6.024
  c0-0.577-0.126-1.015-0.379-1.313c-0.252-0.298-0.618-0.448-1.098-0.448c-0.214,0-0.417,0.038-0.608,0.113
  c-0.192,0.075-0.361,0.186-0.506,0.331c-0.146,0.146-0.261,0.329-0.346,0.55c-0.085,0.22-0.127,0.476-0.127,0.767v4.693h-1.296
  V6.024c0-0.592-0.118-1.033-0.356-1.324c-0.238-0.291-0.585-0.437-1.041-0.437c-0.32,0-0.617,0.087-0.891,0.259
  c-0.275,0.172-0.526,0.406-0.754,0.702v5.493H165.569z"/>
<path fill="#B8B8B8" d="M182.934,10.717h-0.575c-0.126,0-0.229-0.02-0.307-0.058c-0.077-0.039-0.128-0.121-0.152-0.248l-0.146-0.683
  c-0.193,0.174-0.383,0.331-0.567,0.469c-0.185,0.138-0.378,0.254-0.582,0.349s-0.421,0.166-0.651,0.214
  c-0.23,0.049-0.486,0.073-0.768,0.073c-0.287,0-0.555-0.04-0.805-0.12c-0.25-0.081-0.467-0.201-0.651-0.361
  c-0.185-0.161-0.331-0.365-0.44-0.61c-0.108-0.246-0.163-0.537-0.163-0.873c0-0.291,0.08-0.572,0.24-0.842
  c0.159-0.271,0.418-0.511,0.774-0.72c0.356-0.209,0.824-0.381,1.401-0.514c0.577-0.134,1.283-0.202,2.117-0.202V6.013
  c0-0.576-0.122-1.011-0.367-1.306c-0.245-0.296-0.607-0.444-1.088-0.444c-0.315,0-0.581,0.04-0.797,0.12
  c-0.216,0.081-0.403,0.17-0.561,0.27c-0.157,0.099-0.295,0.189-0.407,0.269c-0.114,0.08-0.228,0.12-0.339,0.12
  c-0.087,0-0.163-0.023-0.229-0.069c-0.065-0.046-0.117-0.103-0.156-0.171l-0.232-0.415c0.407-0.393,0.847-0.686,1.317-0.88
  s0.992-0.291,1.564-0.291c0.412,0,0.778,0.068,1.099,0.204c0.32,0.135,0.589,0.325,0.808,0.567c0.219,0.243,0.384,0.536,0.495,0.88
  c0.111,0.345,0.168,0.723,0.168,1.136V10.717z M179.572,9.924c0.228,0,0.437-0.023,0.626-0.069c0.188-0.046,0.367-0.112,0.534-0.197
  c0.168-0.085,0.328-0.188,0.48-0.309c0.153-0.121,0.302-0.259,0.447-0.415v-1.52c-0.597,0-1.104,0.038-1.521,0.114
  c-0.417,0.075-0.757,0.174-1.019,0.296c-0.263,0.121-0.453,0.266-0.571,0.432c-0.119,0.166-0.179,0.351-0.179,0.556
  c0,0.195,0.031,0.363,0.095,0.505c0.062,0.141,0.147,0.257,0.255,0.347c0.106,0.091,0.232,0.156,0.378,0.198
  C179.244,9.903,179.402,9.924,179.572,9.924"/>
<path fill="#B8B8B8" d="M184.899,10.717v-7.37h0.771c0.185,0,0.301,0.09,0.35,0.269l0.102,0.8c0.32-0.354,0.678-0.64,1.073-0.858
  c0.396-0.218,0.853-0.328,1.372-0.328c0.402,0,0.758,0.067,1.066,0.2c0.308,0.134,0.565,0.323,0.771,0.568
  c0.206,0.245,0.362,0.54,0.469,0.884c0.107,0.344,0.16,0.725,0.16,1.142v4.693h-1.295V6.024c0-0.557-0.128-0.991-0.382-1.298
  c-0.255-0.308-0.645-0.463-1.168-0.463c-0.384,0-0.741,0.093-1.074,0.277c-0.332,0.184-0.639,0.434-0.92,0.749v5.428H184.899z"/>
<path fill="#B8B8B8" d="M198.181,10.717c-0.185,0-0.302-0.09-0.35-0.269l-0.116-0.895c-0.315,0.383-0.676,0.69-1.081,0.92
  c-0.405,0.231-0.87,0.346-1.394,0.346c-0.422,0-0.806-0.082-1.15-0.244c-0.344-0.162-0.638-0.401-0.88-0.717
  c-0.243-0.315-0.43-0.708-0.561-1.178c-0.131-0.471-0.196-1.012-0.196-1.623c0-0.543,0.072-1.049,0.218-1.517
  c0.146-0.468,0.355-0.874,0.63-1.218c0.273-0.345,0.607-0.615,1-0.812c0.394-0.196,0.84-0.294,1.34-0.294
  c0.451,0,0.837,0.076,1.157,0.229c0.32,0.153,0.606,0.368,0.858,0.644V0h1.296v10.717H198.181z M195.67,9.771
  c0.422,0,0.792-0.097,1.109-0.291s0.61-0.468,0.877-0.822V5.093c-0.237-0.321-0.498-0.545-0.782-0.673s-0.598-0.193-0.942-0.193
  c-0.689,0-1.218,0.245-1.587,0.735c-0.368,0.49-0.553,1.188-0.553,2.095c0,0.481,0.041,0.891,0.123,1.234
  c0.083,0.341,0.204,0.623,0.364,0.843c0.161,0.221,0.356,0.382,0.59,0.484C195.102,9.72,195.369,9.771,195.67,9.771"/>
<path fill="#B8B8B8" d="M205.349,4.562c-0.058,0.107-0.146,0.16-0.269,0.16c-0.073,0-0.155-0.026-0.248-0.08
  c-0.092-0.053-0.205-0.113-0.337-0.178c-0.135-0.066-0.293-0.126-0.478-0.182c-0.185-0.056-0.403-0.084-0.655-0.084
  c-0.219,0-0.415,0.028-0.59,0.084c-0.175,0.056-0.323,0.132-0.447,0.229c-0.123,0.097-0.219,0.21-0.284,0.339
  c-0.065,0.128-0.098,0.268-0.098,0.418c0,0.189,0.055,0.347,0.163,0.473c0.109,0.126,0.254,0.235,0.434,0.327
  c0.18,0.092,0.383,0.174,0.611,0.244c0.228,0.07,0.462,0.146,0.702,0.226s0.474,0.168,0.702,0.265
  c0.229,0.097,0.432,0.218,0.611,0.364c0.18,0.145,0.324,0.324,0.434,0.535c0.108,0.211,0.163,0.464,0.163,0.76
  c0,0.339-0.062,0.654-0.182,0.942c-0.121,0.289-0.301,0.538-0.539,0.749c-0.237,0.211-0.528,0.378-0.873,0.499
  c-0.345,0.121-0.742,0.181-1.193,0.181c-0.515,0-0.98-0.083-1.397-0.25s-0.771-0.382-1.062-0.644l0.306-0.495
  c0.039-0.063,0.085-0.111,0.139-0.146c0.053-0.033,0.123-0.05,0.211-0.05c0.087,0,0.18,0.034,0.276,0.102
  c0.097,0.067,0.215,0.143,0.353,0.225c0.139,0.083,0.306,0.158,0.503,0.226c0.196,0.068,0.442,0.101,0.738,0.101
  c0.252,0,0.473-0.032,0.662-0.098c0.189-0.065,0.347-0.154,0.474-0.265c0.126-0.112,0.219-0.241,0.28-0.386
  c0.061-0.146,0.091-0.3,0.091-0.466c0-0.203-0.054-0.372-0.164-0.505c-0.109-0.134-0.254-0.247-0.433-0.342
  c-0.18-0.095-0.385-0.177-0.615-0.248c-0.23-0.07-0.466-0.144-0.706-0.221c-0.24-0.078-0.476-0.166-0.706-0.266
  s-0.436-0.224-0.615-0.375c-0.18-0.15-0.323-0.335-0.433-0.556c-0.109-0.221-0.164-0.489-0.164-0.804
  c0-0.282,0.059-0.552,0.175-0.811c0.116-0.26,0.286-0.488,0.51-0.684c0.223-0.197,0.497-0.354,0.822-0.47
  c0.325-0.116,0.696-0.175,1.113-0.175c0.485,0,0.921,0.077,1.307,0.23c0.386,0.153,0.719,0.363,1.001,0.629L205.349,4.562z"/>
<path fill="#B8B8B8" d="M154.434,299.394c0.383,0,0.733,0.062,1.048,0.186c0.315,0.123,0.588,0.287,0.819,0.491
  c0.23,0.203,0.412,0.439,0.546,0.709c0.133,0.27,0.21,0.549,0.229,0.84l-0.808,0.16c-0.024,0.004-0.046,0.008-0.065,0.008
  c-0.063,0-0.123-0.018-0.179-0.051c-0.056-0.034-0.095-0.095-0.12-0.183c-0.034-0.126-0.088-0.257-0.163-0.393
  c-0.076-0.136-0.173-0.26-0.292-0.371c-0.118-0.111-0.261-0.204-0.429-0.276c-0.167-0.073-0.363-0.109-0.586-0.109
  c-0.243,0-0.461,0.039-0.655,0.116c-0.194,0.078-0.36,0.186-0.498,0.324c-0.138,0.139-0.245,0.301-0.32,0.487
  c-0.076,0.187-0.113,0.39-0.113,0.607c0,0.17,0.02,0.332,0.062,0.487c0.041,0.155,0.103,0.312,0.185,0.47
  c0.083,0.157,0.189,0.32,0.32,0.487s0.289,0.344,0.473,0.527l2.999,3.049c0.184-0.325,0.331-0.666,0.44-1.022
  c0.109-0.356,0.183-0.714,0.222-1.073c0.01-0.092,0.039-0.165,0.087-0.218c0.049-0.054,0.117-0.08,0.204-0.08h0.801
  c-0.01,0.558-0.1,1.105-0.269,1.644c-0.17,0.539-0.415,1.043-0.736,1.514l2.184,2.212h-1.252c-0.141,0-0.255-0.017-0.342-0.051
  s-0.184-0.104-0.291-0.211l-1.048-1.055c-0.456,0.441-0.982,0.789-1.576,1.047c-0.594,0.258-1.248,0.386-1.961,0.386
  c-0.388,0-0.769-0.065-1.143-0.196c-0.373-0.131-0.707-0.322-1-0.572c-0.294-0.25-0.531-0.553-0.71-0.912
  c-0.18-0.358-0.269-0.764-0.269-1.215c0-0.34,0.057-0.661,0.171-0.964c0.114-0.303,0.271-0.583,0.473-0.841
  c0.201-0.257,0.44-0.487,0.716-0.69c0.277-0.204,0.581-0.379,0.91-0.524c-0.296-0.373-0.514-0.737-0.655-1.091
  c-0.14-0.354-0.211-0.721-0.211-1.099c0-0.354,0.064-0.687,0.193-0.997c0.129-0.311,0.314-0.581,0.557-0.812
  c0.243-0.23,0.537-0.412,0.884-0.545C153.613,299.46,154.003,299.394,154.434,299.394 M151.545,307.055
  c0,0.315,0.058,0.593,0.175,0.833c0.116,0.24,0.269,0.442,0.458,0.607c0.189,0.164,0.405,0.289,0.648,0.375
  c0.242,0.085,0.49,0.127,0.742,0.127c0.543,0,1.031-0.1,1.463-0.299c0.432-0.198,0.813-0.463,1.142-0.793l-3.078-3.106
  c-0.514,0.276-0.901,0.607-1.161,0.993C151.675,306.178,151.545,306.599,151.545,307.055"/>
<path fill="#B8B8B8" d="M166.115,309.936c-0.185,0-0.301-0.09-0.349-0.27l-0.117-0.895c-0.316,0.383-0.676,0.69-1.081,0.92
  c-0.405,0.23-0.869,0.346-1.393,0.346c-0.423,0-0.806-0.081-1.15-0.243c-0.345-0.163-0.638-0.401-0.881-0.717
  c-0.243-0.315-0.429-0.708-0.56-1.179s-0.197-1.012-0.197-1.622c0-0.544,0.073-1.049,0.218-1.518
  c0.146-0.468,0.356-0.873,0.63-1.219c0.274-0.344,0.608-0.614,1.001-0.811c0.393-0.197,0.839-0.295,1.339-0.295
  c0.451,0,0.837,0.076,1.157,0.229c0.32,0.152,0.606,0.367,0.859,0.644v-4.09h1.295v10.718H166.115z M163.604,308.99
  c0.422,0,0.792-0.097,1.11-0.291c0.318-0.193,0.61-0.468,0.877-0.821v-3.565c-0.238-0.32-0.499-0.544-0.782-0.673
  c-0.285-0.128-0.599-0.193-0.943-0.193c-0.689,0-1.218,0.245-1.587,0.735c-0.368,0.49-0.552,1.188-0.552,2.096
  c0,0.479,0.041,0.891,0.123,1.232c0.083,0.343,0.204,0.624,0.364,0.845c0.16,0.221,0.357,0.382,0.59,0.483
  C163.036,308.939,163.303,308.99,163.604,308.99"/>
<path fill="#B8B8B8" d="M172.046,302.45c0.539,0,1.025,0.09,1.458,0.269c0.436,0.18,0.804,0.435,1.106,0.765
  c0.305,0.329,0.537,0.729,0.699,1.196c0.162,0.469,0.244,0.991,0.244,1.568c0,0.582-0.082,1.105-0.244,1.571
  s-0.395,0.863-0.699,1.193c-0.303,0.33-0.671,0.583-1.106,0.76c-0.434,0.178-0.919,0.266-1.458,0.266s-1.025-0.088-1.459-0.266
  c-0.435-0.177-0.804-0.43-1.11-0.76c-0.306-0.33-0.541-0.728-0.706-1.193s-0.247-0.989-0.247-1.571c0-0.577,0.082-1.1,0.247-1.568
  c0.165-0.468,0.4-0.867,0.706-1.196c0.306-0.33,0.675-0.585,1.11-0.765C171.021,302.54,171.507,302.45,172.046,302.45
   M172.046,309.027c0.728,0,1.271-0.244,1.63-0.731c0.358-0.487,0.538-1.168,0.538-2.041c0-0.878-0.18-1.562-0.538-2.052
  c-0.359-0.489-0.902-0.734-1.63-0.734c-0.369,0-0.689,0.062-0.96,0.188c-0.272,0.127-0.499,0.309-0.681,0.546
  c-0.182,0.238-0.318,0.53-0.408,0.877c-0.09,0.347-0.134,0.738-0.134,1.175s0.044,0.827,0.134,1.172
  c0.09,0.344,0.226,0.634,0.408,0.869s0.409,0.416,0.681,0.542C171.357,308.963,171.677,309.027,172.046,309.027"/>
<path fill="#B8B8B8" d="M177.155,309.936v-7.37h0.771c0.186,0,0.302,0.09,0.351,0.27l0.102,0.8c0.32-0.354,0.678-0.64,1.073-0.858
  s0.852-0.327,1.372-0.327c0.402,0,0.758,0.066,1.066,0.2c0.308,0.133,0.565,0.322,0.771,0.567s0.362,0.539,0.469,0.884
  c0.107,0.345,0.16,0.726,0.16,1.143v4.692h-1.295v-4.692c0-0.558-0.128-0.991-0.382-1.299c-0.255-0.309-0.646-0.462-1.168-0.462
  c-0.384,0-0.741,0.092-1.074,0.276c-0.332,0.185-0.639,0.434-0.92,0.749v5.428H177.155z"/>
<path fill="#B8B8B8" d="M188.167,302.45c0.441,0,0.85,0.074,1.223,0.222c0.374,0.148,0.696,0.361,0.969,0.641
  c0.271,0.278,0.483,0.623,0.637,1.033c0.152,0.409,0.229,0.876,0.229,1.4c0,0.203-0.021,0.339-0.065,0.407
  c-0.043,0.068-0.126,0.102-0.247,0.102h-4.905c0.01,0.466,0.073,0.871,0.189,1.215c0.116,0.345,0.276,0.632,0.479,0.862
  c0.204,0.23,0.447,0.403,0.729,0.517c0.281,0.114,0.597,0.171,0.946,0.171c0.325,0,0.604-0.037,0.841-0.112
  c0.234-0.075,0.438-0.156,0.607-0.244c0.169-0.087,0.312-0.168,0.426-0.243c0.113-0.075,0.212-0.113,0.295-0.113
  c0.106,0,0.188,0.041,0.247,0.124l0.364,0.473c-0.161,0.194-0.353,0.362-0.575,0.506c-0.224,0.143-0.463,0.261-0.717,0.353
  c-0.255,0.093-0.519,0.161-0.79,0.208c-0.271,0.046-0.541,0.068-0.808,0.068c-0.51,0-0.979-0.086-1.408-0.258
  s-0.801-0.425-1.114-0.757c-0.312-0.332-0.556-0.743-0.73-1.233c-0.175-0.489-0.263-1.053-0.263-1.688
  c0-0.515,0.079-0.994,0.237-1.44c0.157-0.446,0.384-0.833,0.68-1.161c0.296-0.326,0.658-0.584,1.085-0.771
  C187.153,302.542,187.633,302.45,188.167,302.45 M188.196,303.403c-0.626,0-1.118,0.181-1.479,0.542
  c-0.357,0.361-0.581,0.862-0.668,1.502h4.01c0-0.301-0.041-0.576-0.124-0.825c-0.082-0.25-0.203-0.466-0.363-0.647
  c-0.16-0.183-0.355-0.323-0.586-0.423C188.755,303.453,188.492,303.403,188.196,303.403"/>
</svg>
