<?xml version="1.0" encoding="utf-8"?>
<!-- Generator: Adobe Illustrator 16.0.0, SVG Export Plug-In . SVG Version: 6.00 Build 0)  -->
<!DOCTYPE svg PUBLIC "-//W3C//DTD SVG 1.1//EN" "http://www.w3.org/Graphics/SVG/1.1/DTD/svg11.dtd">
<svg version="1.1" id="Layer_1" xmlns="http://www.w3.org/2000/svg" xmlns:xlink="http://www.w3.org/1999/xlink" x="0px" y="0px"
   width="423.299px" height="439.813px" viewBox="0 0 423.299 439.813" enable-background="new 0 0 423.299 439.813"
   xml:space="preserve">
<path display="none" fill="#3896B7" d="M318.067,191.231l-73.54-10.689l-32.878-66.629l-32.879,66.629l-73.539,10.689l53.21,51.863
  l-12.562,73.234l65.771-34.58l65.77,34.58l-12.56-73.234L318.067,191.231z"/>
<g>
  <path d="M377.896,369.915l-211.647,69.26L0,289.167L45.404,69.898l211.646-69.26l166.248,150.008L377.896,369.915z
     M167.871,426.677l201.328-65.883l43.776-206.769L255.428,13.135L54.101,79.018L10.324,285.788L167.871,426.677z"/>
  <path d="M422.729,294.649L253.853,439.813l-211.08-74.744L0.573,145.162L169.45,0l211.08,74.742L422.729,294.649z M250.557,427.649
    l160.643-138.084L372.292,81.824L172.746,12.162L12.104,150.246l38.907,207.743L250.557,427.649z"/>
</g>
<path fill="#3896B7" d="M195.806,135.406L195.806,135.406c43.75,0,79.219,28.707,79.219,64.107
  c0,35.406-35.469,64.107-79.219,64.107c-4.204,0-8.324-0.268-12.353-0.773c-17.015,16.947-36.671,19.99-56.305,20.434v-4.146
  c10.604-5.178,19.146-14.6,19.146-25.369c0-1.506-0.113-2.975-0.33-4.422c-17.918-11.746-29.378-29.707-29.378-49.818
  c0-35.412,35.468-64.113,79.22-64.113V135.406z M280.966,279.104c0,9.232,5.993,17.311,15.184,21.75v3.553
  c-17.02-0.381-32.646-2.99-47.387-17.514c-3.492,0.443-7.066,0.67-10.707,0.67c-15.751,0-30.274-4.256-41.854-11.398
  c23.874-0.082,46.413-7.725,63.515-21.568c8.614-6.967,15.411-15.154,20.197-24.318c5.075-9.715,7.653-20.061,7.653-30.764
  c0-1.723-0.072-3.436-0.205-5.141c11.975,9.893,19.351,23.373,19.351,38.236c0,17.242-9.929,32.631-25.457,42.705
  C281.069,276.547,280.966,277.814,280.966,279.104z"/>
<path display="none" fill="#3896B7" d="M116.315,154.224c0-6.299,5.105-11.405,11.405-11.405c6.299,0,11.405,5.106,11.405,11.405
  c0,6.295-5.106,11.405-11.405,11.405C121.42,165.629,116.315,160.523,116.315,154.224z M161.927,142.818h136.848v22.802H161.927
  V142.818z M161.927,199.841c0-6.299,5.106-11.411,11.411-11.411c6.294,0,11.4,5.108,11.4,11.411c0,6.296-5.106,11.4-11.4,11.4
  C167.038,211.241,161.927,206.137,161.927,199.841z M207.545,188.43h91.229v22.807h-91.229V188.43z M161.927,291.062
  c0-6.294,5.106-11.405,11.411-11.405c6.294,0,11.4,5.106,11.4,11.405c0,6.3-5.106,11.406-11.4,11.406
  C167.038,302.468,161.927,297.361,161.927,291.062z M207.545,279.666h91.229v22.802h-91.229V279.666z M207.545,245.444
  c0-6.294,5.101-11.401,11.405-11.401c6.3,0,11.401,5.107,11.401,11.401c0,6.301-5.102,11.41-11.401,11.41
  C212.656,256.854,207.545,251.75,207.545,245.444z M253.163,234.048h45.611v22.807h-45.611V234.048z"/>
</svg>
