<?xml version="1.0" encoding="utf-8"?>
<!-- Generator: Adobe Illustrator 16.0.0, SVG Export Plug-In . SVG Version: 6.00 Build 0)  -->
<!DOCTYPE svg PUBLIC "-//W3C//DTD SVG 1.1//EN" "http://www.w3.org/Graphics/SVG/1.1/DTD/svg11.dtd">
<svg version="1.1" id="Layer_1" xmlns="http://www.w3.org/2000/svg" xmlns:xlink="http://www.w3.org/1999/xlink" x="0px" y="0px"
   width="423.299px" height="439.813px" viewBox="0 0 423.299 439.813" enable-background="new 0 0 423.299 439.813"
   xml:space="preserve">
<path fill="#3896B7" d="M318.067,191.231l-73.54-10.689l-32.878-66.629l-32.879,66.629l-73.539,10.689l53.21,51.863l-12.562,73.234
  l65.771-34.58l65.77,34.58l-12.56-73.234L318.067,191.231z"/>
<g>
  <path d="M377.896,369.915l-211.647,69.26L0,289.167L45.404,69.898l211.646-69.26l166.248,150.008L377.896,369.915z
     M167.871,426.677l201.328-65.883l43.776-206.769L255.428,13.135L54.101,79.018L10.324,285.788L167.871,426.677z"/>
  <path d="M422.729,294.649L253.853,439.813l-211.08-74.744L0.573,145.162L169.45,0l211.08,74.742L422.729,294.649z M250.557,427.649
    l160.643-138.084L372.292,81.824L172.746,12.162L12.104,150.246l38.907,207.743L250.557,427.649z"/>
</g>
</svg>
