<?xml version="1.0" encoding="utf-8"?>
<!-- Generator: Adobe Illustrator 16.0.0, SVG Export Plug-In . SVG Version: 6.00 Build 0)  -->
<!DOCTYPE svg PUBLIC "-//W3C//DTD SVG 1.1//EN" "http://www.w3.org/Graphics/SVG/1.1/DTD/svg11.dtd">
<svg version="1.1" id="Layer_1" xmlns:sketch="http://www.bohemiancoding.com/sketch/ns"
	 xmlns="http://www.w3.org/2000/svg" xmlns:xlink="http://www.w3.org/1999/xlink" x="0px" y="0px" width="357.334px"
	 height="368.46px" viewBox="4 -4.167 357.334 368.46" enable-background="new 4 -4.167 357.334 368.46" xml:space="preserve">
<g id="message" transform="translate(49.000000, 98.000000)" sketch:type="MSLayerGroup">
	<g id="body-field" transform="translate(0.000000, 85.000000)">
		<polygon fill="#F7FAFF" points="0,83.796 54.485,132.438 131.981,159.448 210.896,133.665 273.863,79.637 290.867,-0.533 
			290.83,-0.729 0,-0.729 		"/>
		<text transform="matrix(1 0 0 1 9.3506 23.4961)" font-family="'HelveticaNeue-Light'" font-size="13">I’m getting on stage tomorrow, and I don’t want to</text>
		<text transform="matrix(1 0 0 1 9.3506 39.4961)" font-family="'HelveticaNeue-Light'" font-size="13">myself, how is GIF supposed to be pronounced th</text>
		<text transform="matrix(1 0 0 1 9.3506 55.4961)" font-family="'HelveticaNeue-Light'" font-size="13">Hard-G?</text>
		<text transform="matrix(1 0 0 1 9.3506 87.4961)" font-family="'HelveticaNeue-Light'" font-size="13">Thanks!</text>
	</g>
	<g id="Subject:-field" transform="translate(0.000000, 57.000000)">
		<polygon fill="#F7FAFF" points="0,27.068 290.792,27.068 285.477,-1.265 0,-1.265 		"/>
		<text transform="matrix(1 0 0 1 9 18.0684)" font-family="'HelveticaNeue-Medium'" font-size="13">Subject:</text>
		<polygon fill="none" stroke="#979797" stroke-width="0.2835" points="290.867,27.467 290.84,27.318 0,27.318 290.84,27.318 		"/>
		<polygon fill="none" stroke="#979797" stroke-width="0.2835" points="290.867,-1.265 290.84,-1.413 0,-1.413 290.84,-1.413 		"/>
		<text transform="matrix(1 0 0 1 69 18.0684)" font-family="'HelveticaNeue-Light'" font-size="13">How do you pronounce GIF anyway?</text>
	</g>
	<g id="To:-field" transform="translate(0.000000, 28.000000)">
		<polygon fill="#F7FAFF" points="0,27.318 285.398,27.318 280.161,-0.598 0,-0.598 		"/>
		<text transform="matrix(1 0 0 1 9 18.0684)" font-family="'HelveticaNeue-Medium'" font-size="13">To:</text>
		<text transform="matrix(1 0 0 1 36 18.0684)" font-family="'HelveticaNeue-Light'" font-size="13">my-team@awesome-co.threadable.com</text>
	</g>
	<g id="Title-Bar">
		<polygon fill="#4990E2" points="271.139,-0.932 0,-0.932 0,28.368 280.343,28.368 275.592,3.044 		"/>
		<text transform="matrix(1 0 0 1 9.3506 17.4248)" fill="#FFFFFF" font-family="'HelveticaNeue-Light'" font-size="13">New Message</text>
	</g>
</g>
<path id="hexa" fill="#5DBFD1" d="M347.047,180.722l12.229-58.963L330.78,96.087l-7.237-37.638l-56.866-20.102L220.379-3.36
	L183.126,8.81L147.187-3.893l-45.996,39.47L43.544,54.41l-7.73,37.269L6.087,117.188l11.753,61.141L5.609,237.3l28.503,25.675
	l7.233,37.636l56.86,20.1l46.304,41.71l37.257-12.172l35.937,12.704l45.995-39.47l57.639-18.832l7.732-37.267l29.729-25.512
	L347.047,180.722L347.047,180.722z M350.65,124.579l-7.552,35.61l-9.828-51.125L350.65,124.579L350.65,124.579z M338.612,181.358
	l-16.94,79.869l-62.73,53.825l-78.619,25.687l-77.205-26.908l-61.621-55.013l-15.219-81.125l16.936-79.859l62.734-53.832
	l78.619-25.683l77.201,26.903l61.627,55.019L338.612,181.358L338.612,181.358z M316.66,64.356l4.296,22.883L282.23,52.356
	L316.66,64.356L316.66,64.356z M219.021,7.064l26.772,23.9l-48-16.965L219.021,7.064L219.021,7.064z M149.939,6.253l19.845,6.916
	L124.726,27.89L149.939,6.253L149.939,6.253z M50.81,62.015L82.41,51.69L46.457,82.544L50.81,62.015L50.81,62.015z M15.722,121.427
	l16.935-14.534l-10.325,49.775L15.722,121.427L15.722,121.427z M14.234,234.483l7.555-35.617L31.617,250L14.234,234.483
	L14.234,234.483z M48.228,294.704l-4.292-22.882l38.72,34.878L48.228,294.704L48.228,294.704z M145.865,351.995l-26.774-23.901
	l48.002,16.964L145.865,351.995L145.865,351.995z M214.95,352.808l-19.847-6.918l45.06-14.719L214.95,352.808L214.95,352.808z
	 M314.075,297.046l-31.595,10.317l35.95-30.846L314.075,297.046L314.075,297.046z M342.557,202.382l6.609,35.249l-16.938,14.537
	L342.557,202.382L342.557,202.382z"/>
</svg>
