<?xml version="1.0" encoding="utf-8"?>
<!-- Generator: Adobe Illustrator 16.0.0, SVG Export Plug-In . SVG Version: 6.00 Build 0)  -->
<!DOCTYPE svg PUBLIC "-//W3C//DTD SVG 1.1//EN" "http://www.w3.org/Graphics/SVG/1.1/DTD/svg11.dtd">
<svg version="1.1" id="Layer_1" xmlns="http://www.w3.org/2000/svg" xmlns:xlink="http://www.w3.org/1999/xlink" x="0px" y="0px"
	 width="348.015px" height="310.051px" viewBox="0 0 348.015 310.051" enable-background="new 0 0 348.015 310.051"
	 xml:space="preserve">
<path fill="#EBF4FF" d="M291.737,156.195l8.821-42.529L280.004,95.15l-5.22-27.148l-41.016-14.499L200.374,23.42l-26.87,8.778
	l-25.922-9.162l-33.176,28.469L72.827,65.089L67.251,91.97L45.81,110.369l8.477,44.1l-8.822,42.535l20.559,18.518l5.217,27.146
	l41.012,14.498l33.398,30.084l26.873-8.779l25.921,9.163l33.175-28.468l41.574-13.584l5.577-26.879l21.443-18.401L291.737,156.195z
	 M294.336,115.7l-5.446,25.685l-7.089-36.875L294.336,115.7z M285.653,156.654l-12.218,57.608l-45.246,38.823l-56.707,18.527
	l-55.686-19.408l-44.446-39.68l-10.977-58.513L72.588,96.41l45.249-38.828l56.706-18.525l55.684,19.405l44.45,39.684
	L285.653,156.654z M269.82,72.263l3.098,16.505l-27.931-25.161L269.82,72.263z M199.395,30.939l19.31,17.239l-34.621-12.237
	L199.395,30.939z M149.567,30.354l14.314,4.988l-32.5,10.618L149.567,30.354z M78.067,70.574l22.793-7.447L74.927,85.381
	L78.067,70.574z M52.759,113.427l12.215-10.483l-7.447,35.902L52.759,113.427z M51.686,194.972l5.449-25.69l7.089,36.882
	L51.686,194.972z M76.205,238.408l-3.096-16.504l27.928,25.157L76.205,238.408z M146.629,279.731l-19.312-17.24l34.623,12.236
	L146.629,279.731z M196.458,280.317l-14.315-4.99l32.501-10.616L196.458,280.317z M267.956,240.097l-22.789,7.442l25.93-22.249
	L267.956,240.097z M288.498,171.818l4.768,25.424l-12.218,10.485L288.498,171.818z"/>
<g>
	<path fill-rule="evenodd" clip-rule="evenodd" fill="#35AFC6" d="M164.619,171.057c0.025,0.025,0.049,0.052,0.075,0.073
		c4.863,4.67,11.775,4.688,16.628,0.019c3.28-3.149,6.55-6.309,9.771-9.518c18.418-18.343,36.819-36.703,55.225-55.058
		c0.229-0.228,0.447-0.469,0.829-0.872H98.938c0.332,0.375,0.499,0.587,0.689,0.776
		C121.291,128.006,142.954,149.533,164.619,171.057 M199.319,158.683c-5.099,4.988-10.184,9.985-15.287,14.956
		c-6.233,6.079-15.387,6.208-21.709,0.29c-2.812-2.629-5.575-5.318-8.331-8.014c-2.414-2.36-4.797-4.76-7.174-7.16
		c-0.261-0.265-0.397-0.652-0.447-0.737c-15.872,15.84-31.514,31.444-47.053,46.949h147.653
		c-15.682-15.64-31.315-31.232-47.003-46.883C199.811,158.23,199.555,158.45,199.319,158.683 M96.041,108.674v93.45
		c15.729-15.673,31.397-31.288,46.867-46.703C127.32,139.872,111.649,124.243,96.041,108.674 M203.131,155.303
		c15.561,15.496,31.226,31.102,46.851,46.667v-93.394C234.323,124.192,218.651,139.823,203.131,155.303"/>
</g>
</svg>
