<?xml version="1.0" encoding="utf-8"?>
<!-- Generator: Adobe Illustrator 16.0.0, SVG Export Plug-In . SVG Version: 6.00 Build 0)  -->
<!DOCTYPE svg PUBLIC "-//W3C//DTD SVG 1.1//EN" "http://www.w3.org/Graphics/SVG/1.1/DTD/svg11.dtd">
<svg version="1.1" id="Layer_1" xmlns="http://www.w3.org/2000/svg" xmlns:xlink="http://www.w3.org/1999/xlink" x="0px" y="0px"
	 width="175px" height="175px" viewBox="0 0 175 175" enable-background="new 0 0 175 175" xml:space="preserve">
<g>
	<path fill="#8D9297" d="M36.966,138.889c0-4.393-0.032-8.784,0.023-13.176c0.014-1.056-0.258-1.556-1.333-1.901
		c-8.348-2.682-16.672-5.438-25-8.18c-3.361-1.105-3.919-2.922-1.805-5.836c5.125-7.066,10.236-14.144,15.404-21.181
		c0.611-0.832,0.626-1.343,0.013-2.178C19.074,79.36,13.916,72.256,8.799,65.123c-0.555-0.773-1.057-1.763-1.107-2.679
		c-0.083-1.514,0.928-2.366,2.382-2.838c8.484-2.757,16.943-5.591,25.434-8.324c1.174-0.378,1.494-0.912,1.487-2.102
		c-0.054-8.634-0.03-17.268-0.03-25.902c0-3.607,1.514-4.742,4.888-3.658c8.35,2.682,16.706,5.344,25.038,8.081
		c1.061,0.348,1.587,0.126,2.206-0.735c5.067-7.047,10.185-14.058,15.274-21.089c2.047-2.828,4.217-2.838,6.278,0.001
		c5.099,7.025,10.213,14.039,15.278,21.087c0.623,0.867,1.146,1.082,2.204,0.735c8.429-2.763,16.881-5.45,25.326-8.161
		c2.927-0.94,4.589,0.229,4.595,3.292c0.015,8.784,0.029,17.568-0.021,26.351c-0.007,1.188,0.31,1.725,1.488,2.103
		c8.398,2.695,16.772,5.468,25.147,8.236c2.931,0.968,3.553,2.878,1.748,5.376c-5.172,7.155-10.344,14.311-15.575,21.422
		c-0.691,0.941-0.657,1.502,0.021,2.422c5.172,7.032,10.28,14.112,15.407,21.178c1.979,2.729,1.397,4.632-1.765,5.673
		c-8.374,2.757-16.747,5.52-25.141,8.216c-1.071,0.343-1.332,0.855-1.327,1.908c0.04,8.784,0.021,17.568,0.025,26.353
		c0.001,1.458-0.146,2.934-1.74,3.461c-0.82,0.271-1.879,0.245-2.714-0.016c-8.508-2.669-16.997-5.39-25.47-8.164
		c-1.044-0.343-1.567-0.178-2.2,0.705c-5.093,7.089-10.237,14.141-15.366,21.203c-2.07,2.852-4.061,2.846-6.124,0
		c-5.123-7.066-10.27-14.116-15.36-21.208c-0.635-0.885-1.162-1.04-2.203-0.698c-8.473,2.773-16.97,5.473-25.459,8.196
		c-2.723,0.874-4.429-0.315-4.45-3.185C36.943,147.872,36.966,143.38,36.966,138.889 M33.602,87.471
		c0.005,29.689,24.208,53.953,53.835,53.973c29.731,0.02,53.971-24.215,53.985-53.976c0.015-29.603-24.267-53.861-53.913-53.86
		C57.859,33.608,33.597,57.85,33.602,87.471"/>
</g>
</svg>
