<?xml version="1.0" encoding="utf-8"?>
<!-- Generator: Adobe Illustrator 16.0.0, SVG Export Plug-In . SVG Version: 6.00 Build 0)  -->
<!DOCTYPE svg PUBLIC "-//W3C//DTD SVG 1.1//EN" "http://www.w3.org/Graphics/SVG/1.1/DTD/svg11.dtd">
<svg version="1.1" id="Layer_1" xmlns="http://www.w3.org/2000/svg" xmlns:xlink="http://www.w3.org/1999/xlink" x="0px" y="0px"
	 width="378px" height="236px" viewBox="0 0 378 236" enable-background="new 0 0 378 236" xml:space="preserve">
<g>
	<rect x="19" y="20.503" fill="#2E7886" width="341" height="43"/>
	<polygon fill="#FFFFFF" points="77.031,38.541 77.031,41.511 79.858,41.511 79.858,42.45 77.031,42.45 77.031,45.44 76.017,45.44 
		76.017,42.45 73.204,42.45 73.204,41.511 76.017,41.511 76.017,38.541 	"/>
	<g>
		<path fill="#FFFFFF" d="M92.184,46.65h-1.041c-0.121,0-0.218-0.031-0.292-0.091c-0.074-0.06-0.129-0.136-0.167-0.229l-0.93-2.406
			h-4.466l-0.931,2.406c-0.032,0.083-0.088,0.158-0.166,0.223c-0.079,0.064-0.176,0.097-0.292,0.097h-1.042l3.98-9.966h1.368
			L92.184,46.65z M85.663,42.95h3.716l-1.563-4.054c-0.102-0.251-0.201-0.564-0.299-0.939c-0.05,0.19-0.1,0.365-0.149,0.525
			c-0.048,0.16-0.096,0.3-0.142,0.421L85.663,42.95z"/>
		<path fill="#FFFFFF" d="M100.269,40.857c-0.037,0.051-0.074,0.09-0.111,0.118c-0.037,0.028-0.091,0.042-0.16,0.042
			s-0.145-0.029-0.226-0.087c-0.081-0.058-0.184-0.122-0.309-0.191c-0.125-0.069-0.277-0.133-0.455-0.192
			c-0.178-0.057-0.397-0.086-0.656-0.086c-0.343,0-0.646,0.061-0.91,0.184c-0.263,0.123-0.485,0.3-0.663,0.532
			c-0.178,0.232-0.312,0.512-0.403,0.842c-0.09,0.329-0.135,0.697-0.135,1.105c0,0.427,0.049,0.806,0.146,1.137
			c0.097,0.332,0.234,0.61,0.409,0.835c0.177,0.224,0.39,0.396,0.643,0.514c0.252,0.119,0.536,0.178,0.851,0.178
			c0.301,0,0.548-0.036,0.743-0.108c0.194-0.072,0.356-0.152,0.486-0.24c0.129-0.088,0.236-0.168,0.319-0.24
			c0.084-0.072,0.167-0.108,0.25-0.108c0.107,0,0.185,0.039,0.237,0.119l0.347,0.452c-0.306,0.375-0.688,0.65-1.146,0.823
			c-0.459,0.174-0.943,0.261-1.452,0.261c-0.44,0-0.848-0.081-1.225-0.243c-0.378-0.162-0.705-0.397-0.983-0.706
			c-0.278-0.308-0.497-0.687-0.657-1.137c-0.159-0.45-0.239-0.962-0.239-1.537c0-0.524,0.073-1.008,0.219-1.454
			c0.145-0.444,0.358-0.828,0.639-1.15c0.28-0.323,0.626-0.574,1.038-0.755c0.412-0.18,0.884-0.271,1.417-0.271
			c0.49,0,0.925,0.08,1.305,0.24c0.38,0.16,0.716,0.386,1.007,0.678L100.269,40.857z"/>
		<path fill="#FFFFFF" d="M108.978,40.857c-0.037,0.051-0.074,0.09-0.111,0.118c-0.037,0.028-0.091,0.042-0.16,0.042
			s-0.145-0.029-0.226-0.087c-0.081-0.058-0.184-0.122-0.309-0.191c-0.125-0.069-0.277-0.133-0.455-0.192
			c-0.178-0.057-0.397-0.086-0.656-0.086c-0.343,0-0.646,0.061-0.91,0.184c-0.263,0.123-0.485,0.3-0.663,0.532
			c-0.178,0.232-0.312,0.512-0.403,0.842c-0.09,0.329-0.135,0.697-0.135,1.105c0,0.427,0.049,0.806,0.146,1.137
			c0.097,0.332,0.234,0.61,0.409,0.835c0.177,0.224,0.39,0.396,0.643,0.514c0.252,0.119,0.536,0.178,0.851,0.178
			c0.301,0,0.548-0.036,0.743-0.108c0.194-0.072,0.356-0.152,0.486-0.24c0.129-0.088,0.236-0.168,0.319-0.24
			c0.084-0.072,0.167-0.108,0.25-0.108c0.107,0,0.185,0.039,0.237,0.119l0.347,0.452c-0.306,0.375-0.688,0.65-1.146,0.823
			c-0.459,0.174-0.943,0.261-1.452,0.261c-0.44,0-0.848-0.081-1.225-0.243c-0.378-0.162-0.705-0.397-0.983-0.706
			c-0.278-0.308-0.497-0.687-0.657-1.137c-0.159-0.45-0.239-0.962-0.239-1.537c0-0.524,0.073-1.008,0.219-1.454
			c0.145-0.444,0.358-0.828,0.639-1.15c0.28-0.323,0.626-0.574,1.038-0.755c0.412-0.18,0.884-0.271,1.417-0.271
			c0.49,0,0.925,0.08,1.305,0.24s0.716,0.386,1.007,0.678L108.978,40.857z"/>
		<path fill="#FFFFFF" d="M115.735,39.494c0.514,0,0.978,0.086,1.393,0.258c0.414,0.171,0.766,0.414,1.055,0.73
			c0.289,0.315,0.512,0.696,0.667,1.144c0.155,0.447,0.233,0.947,0.233,1.498c0,0.556-0.078,1.057-0.233,1.502
			c-0.155,0.446-0.378,0.826-0.667,1.141c-0.289,0.315-0.641,0.557-1.055,0.727c-0.415,0.169-0.879,0.253-1.393,0.253
			s-0.978-0.084-1.393-0.253c-0.414-0.17-0.767-0.412-1.059-0.727c-0.291-0.315-0.516-0.695-0.673-1.141
			c-0.158-0.445-0.236-0.946-0.236-1.502c0-0.551,0.078-1.051,0.236-1.498c0.157-0.448,0.382-0.829,0.673-1.144
			c0.292-0.316,0.645-0.559,1.059-0.73C114.757,39.58,115.221,39.494,115.735,39.494 M115.735,45.781
			c0.695,0,1.213-0.233,1.556-0.699c0.342-0.466,0.514-1.116,0.514-1.951c0-0.839-0.172-1.493-0.514-1.961
			c-0.343-0.468-0.861-0.702-1.556-0.702c-0.352,0-0.657,0.06-0.917,0.181c-0.259,0.12-0.476,0.294-0.649,0.521
			c-0.174,0.227-0.303,0.507-0.389,0.838c-0.086,0.332-0.128,0.706-0.128,1.123c0,0.418,0.042,0.791,0.128,1.12
			c0.086,0.329,0.215,0.606,0.389,0.831c0.173,0.225,0.39,0.398,0.649,0.518C115.078,45.72,115.383,45.781,115.735,45.781"/>
		<path fill="#FFFFFF" d="M123.902,39.605v4.493c0,0.533,0.123,0.945,0.368,1.237c0.245,0.292,0.616,0.438,1.111,0.438
			c0.361,0,0.702-0.085,1.021-0.257c0.32-0.171,0.614-0.41,0.882-0.716v-5.195h1.237v7.045h-0.737c-0.176,0-0.287-0.086-0.333-0.257
			l-0.097-0.758c-0.306,0.338-0.649,0.611-1.028,0.817c-0.38,0.206-0.815,0.309-1.306,0.309c-0.384,0-0.723-0.064-1.017-0.191
			c-0.294-0.128-0.541-0.307-0.74-0.539c-0.199-0.232-0.348-0.512-0.448-0.842c-0.1-0.329-0.149-0.692-0.149-1.091v-4.493H123.902z"
			/>
		<path fill="#FFFFFF" d="M132.778,46.65v-7.045h0.736c0.176,0,0.287,0.086,0.333,0.257l0.098,0.766
			c0.305-0.339,0.646-0.612,1.024-0.821c0.377-0.209,0.813-0.313,1.309-0.313c0.384,0,0.724,0.064,1.018,0.191
			c0.294,0.128,0.539,0.309,0.736,0.543c0.197,0.234,0.346,0.515,0.448,0.845c0.101,0.329,0.152,0.693,0.152,1.092v4.485h-1.236
			v-4.485c0-0.534-0.121-0.948-0.365-1.242c-0.242-0.294-0.614-0.441-1.114-0.441c-0.366,0-0.707,0.087-1.024,0.264
			c-0.318,0.176-0.611,0.415-0.879,0.716v5.188H132.778z"/>
		<path fill="#FFFFFF" d="M144.855,46.761c-0.556,0-0.982-0.155-1.281-0.466c-0.299-0.31-0.448-0.758-0.448-1.342v-4.312h-0.848
			c-0.073,0-0.136-0.022-0.187-0.066c-0.051-0.044-0.076-0.112-0.076-0.205v-0.494l1.153-0.146l0.284-2.177
			c0.009-0.069,0.04-0.126,0.091-0.17c0.05-0.044,0.115-0.066,0.194-0.066h0.625v2.427h2.014v0.897h-2.014v4.228
			c0,0.297,0.072,0.517,0.215,0.661c0.144,0.144,0.329,0.215,0.556,0.215c0.129,0,0.242-0.017,0.337-0.051
			c0.094-0.036,0.177-0.074,0.246-0.115c0.07-0.042,0.129-0.08,0.178-0.115c0.048-0.035,0.091-0.052,0.128-0.052
			c0.064,0,0.123,0.039,0.173,0.118l0.362,0.591c-0.213,0.2-0.471,0.356-0.771,0.47C145.485,46.704,145.174,46.761,144.855,46.761"
			/>
		<path fill="#FFFFFF" d="M154.154,40.767c-0.055,0.102-0.141,0.153-0.256,0.153c-0.07,0-0.148-0.026-0.236-0.076
			c-0.088-0.052-0.195-0.108-0.324-0.171c-0.127-0.063-0.278-0.12-0.454-0.174c-0.177-0.053-0.384-0.08-0.625-0.08
			c-0.209,0-0.396,0.027-0.562,0.08c-0.168,0.054-0.311,0.126-0.428,0.219c-0.119,0.093-0.209,0.201-0.271,0.323
			c-0.063,0.123-0.094,0.257-0.094,0.4c0,0.181,0.053,0.332,0.156,0.452c0.106,0.121,0.242,0.226,0.414,0.313
			c0.17,0.089,0.366,0.166,0.582,0.233c0.219,0.068,0.442,0.14,0.672,0.216c0.229,0.076,0.451,0.161,0.67,0.254
			c0.217,0.093,0.412,0.209,0.582,0.348c0.172,0.139,0.311,0.309,0.414,0.511c0.104,0.202,0.156,0.444,0.156,0.727
			c0,0.324-0.058,0.624-0.173,0.9c-0.116,0.276-0.287,0.515-0.514,0.716c-0.227,0.202-0.504,0.361-0.834,0.477
			c-0.328,0.116-0.707,0.174-1.139,0.174c-0.49,0-0.935-0.08-1.334-0.24c-0.398-0.16-0.735-0.365-1.013-0.616l0.292-0.472
			c0.037-0.061,0.081-0.107,0.132-0.14c0.05-0.032,0.118-0.048,0.201-0.048c0.084,0,0.172,0.032,0.263,0.097
			c0.094,0.065,0.205,0.137,0.338,0.216c0.131,0.079,0.291,0.15,0.479,0.215c0.187,0.065,0.422,0.097,0.705,0.097
			c0.24,0,0.451-0.031,0.633-0.093c0.179-0.063,0.33-0.148,0.451-0.254c0.119-0.107,0.209-0.23,0.267-0.369
			c0.057-0.139,0.086-0.287,0.086-0.445c0-0.194-0.052-0.356-0.156-0.483c-0.103-0.128-0.242-0.237-0.412-0.327
			c-0.172-0.091-0.367-0.169-0.588-0.237c-0.221-0.067-0.443-0.138-0.674-0.212c-0.228-0.074-0.453-0.159-0.674-0.253
			c-0.218-0.096-0.416-0.215-0.586-0.359c-0.171-0.143-0.309-0.321-0.413-0.531c-0.104-0.211-0.156-0.468-0.156-0.769
			c0-0.269,0.055-0.527,0.166-0.775c0.111-0.248,0.273-0.466,0.486-0.654c0.212-0.188,0.474-0.338,0.785-0.449
			c0.31-0.111,0.664-0.166,1.062-0.166c0.463,0,0.879,0.072,1.248,0.218c0.367,0.146,0.686,0.347,0.955,0.602L154.154,40.767z"/>
	</g>
	<polygon fill-rule="evenodd" clip-rule="evenodd" fill="#C8D2D5" points="40.529,37.135 40.529,46.871 48.169,42.003 	"/>
	<g>
		<path fill-rule="evenodd" clip-rule="evenodd" fill="#9B59B6" d="M327.354,26.169c-8.822,0-15.974,7.089-15.974,15.833
			c0,8.745,7.151,15.834,15.974,15.834s15.974-7.089,15.974-15.834C343.328,33.258,336.177,26.169,327.354,26.169"/>
		<path fill="#FFFFFF" d="M329.394,38.086v0.43c0,0.122-0.014,0.222-0.041,0.301s-0.055,0.145-0.084,0.199l-3.214,6.43
			c-0.047,0.093-0.111,0.173-0.195,0.239c-0.083,0.066-0.194,0.099-0.336,0.099h-0.688l3.262-6.349
			c0.048-0.09,0.096-0.172,0.145-0.247c0.048-0.076,0.104-0.147,0.165-0.215h-4.054c-0.062,0-0.117-0.025-0.166-0.073
			s-0.073-0.103-0.073-0.164v-0.65H329.394z"/>
	</g>
</g>
<g>
	<rect x="19" y="70.046" fill="#2E7886" width="341" height="43"/>
	<polygon fill="#FFFFFF" points="77.031,88.084 77.031,91.054 79.858,91.054 79.858,91.993 77.031,91.993 77.031,94.983 
		76.017,94.983 76.017,91.993 73.204,91.993 73.204,91.054 76.017,91.054 76.017,88.084 	"/>
	<path fill="#FFFFFF" d="M89.094,87.785c-0.042,0.069-0.086,0.122-0.132,0.156c-0.046,0.035-0.107,0.052-0.18,0.052
		c-0.08,0-0.171-0.039-0.275-0.118c-0.104-0.078-0.236-0.165-0.396-0.26c-0.16-0.096-0.352-0.183-0.576-0.261
		c-0.225-0.079-0.497-0.118-0.816-0.118c-0.301,0-0.567,0.04-0.799,0.121c-0.232,0.081-0.425,0.192-0.58,0.331
		c-0.155,0.139-0.272,0.302-0.35,0.49c-0.08,0.188-0.119,0.391-0.119,0.608c0,0.279,0.069,0.509,0.205,0.692
		c0.137,0.183,0.317,0.34,0.542,0.47c0.225,0.129,0.479,0.242,0.764,0.337c0.285,0.095,0.576,0.194,0.875,0.295
		c0.298,0.102,0.59,0.217,0.875,0.345c0.285,0.128,0.539,0.288,0.764,0.483c0.224,0.195,0.405,0.434,0.542,0.716
		c0.136,0.283,0.204,0.631,0.204,1.044c0,0.435-0.073,0.845-0.222,1.227c-0.148,0.383-0.364,0.715-0.649,0.998
		c-0.285,0.283-0.635,0.505-1.049,0.667c-0.414,0.163-0.885,0.244-1.413,0.244c-0.644,0-1.231-0.117-1.76-0.351
		c-0.531-0.234-0.983-0.551-1.358-0.949l0.388-0.64c0.037-0.051,0.083-0.094,0.136-0.129c0.053-0.034,0.112-0.052,0.177-0.052
		c0.098,0,0.208,0.052,0.333,0.156c0.125,0.105,0.282,0.219,0.469,0.344c0.188,0.126,0.415,0.241,0.681,0.345
		c0.266,0.104,0.591,0.156,0.976,0.156c0.319,0,0.604-0.044,0.854-0.132s0.462-0.212,0.636-0.372
		c0.173-0.16,0.306-0.351,0.399-0.574c0.092-0.222,0.139-0.47,0.139-0.744c0-0.301-0.069-0.548-0.205-0.74
		c-0.137-0.192-0.316-0.354-0.538-0.483c-0.223-0.13-0.476-0.241-0.761-0.331c-0.285-0.09-0.576-0.183-0.875-0.278
		c-0.299-0.095-0.591-0.205-0.875-0.33c-0.285-0.125-0.538-0.288-0.76-0.487c-0.223-0.199-0.402-0.449-0.539-0.748
		c-0.136-0.299-0.205-0.669-0.205-1.109c0-0.352,0.069-0.693,0.205-1.022c0.137-0.329,0.334-0.622,0.594-0.877
		c0.259-0.255,0.58-0.459,0.962-0.611c0.382-0.154,0.82-0.23,1.316-0.23c0.556,0,1.063,0.088,1.521,0.264
		c0.458,0.176,0.858,0.431,1.201,0.765L89.094,87.785z"/>
	<path fill="#FFFFFF" d="M98.553,96.193h-0.548c-0.121,0-0.218-0.019-0.292-0.056c-0.074-0.037-0.123-0.116-0.146-0.236
		l-0.139-0.654c-0.185,0.167-0.366,0.316-0.541,0.449c-0.176,0.132-0.361,0.243-0.556,0.333c-0.194,0.091-0.402,0.159-0.622,0.205
		c-0.219,0.047-0.464,0.07-0.732,0.07c-0.274,0-0.529-0.038-0.768-0.115c-0.238-0.077-0.446-0.192-0.621-0.345
		c-0.176-0.154-0.316-0.348-0.42-0.583c-0.105-0.235-0.156-0.513-0.156-0.834c0-0.279,0.076-0.548,0.229-0.806
		c0.152-0.258,0.399-0.487,0.739-0.687c0.341-0.2,0.786-0.364,1.337-0.492c0.551-0.128,1.225-0.192,2.021-0.192v-0.553
		c0-0.551-0.117-0.967-0.351-1.249c-0.233-0.283-0.58-0.424-1.038-0.424c-0.301,0-0.555,0.038-0.76,0.115
		c-0.206,0.077-0.385,0.162-0.535,0.257c-0.151,0.096-0.28,0.181-0.389,0.258c-0.109,0.076-0.216,0.114-0.323,0.114
		c-0.083,0-0.157-0.021-0.219-0.065c-0.063-0.045-0.112-0.099-0.149-0.164l-0.223-0.396c0.39-0.376,0.808-0.656,1.258-0.842
		c0.449-0.185,0.946-0.278,1.493-0.278c0.393,0,0.743,0.065,1.049,0.195c0.305,0.13,0.562,0.31,0.77,0.542
		c0.209,0.232,0.366,0.512,0.473,0.842c0.106,0.329,0.159,0.69,0.159,1.084V96.193z M95.345,95.435c0.217,0,0.417-0.022,0.597-0.066
		c0.181-0.044,0.351-0.107,0.51-0.188c0.16-0.081,0.313-0.18,0.459-0.296c0.146-0.116,0.288-0.247,0.427-0.396v-1.453
		c-0.57,0-1.054,0.036-1.451,0.108c-0.399,0.072-0.723,0.167-0.973,0.283c-0.25,0.117-0.432,0.255-0.545,0.413
		c-0.113,0.158-0.17,0.336-0.17,0.532c0,0.186,0.03,0.347,0.09,0.482c0.06,0.136,0.141,0.246,0.243,0.332
		c0.102,0.087,0.223,0.15,0.361,0.189C95.033,95.415,95.183,95.435,95.345,95.435"/>
	<rect x="102.79" y="85.949" fill="#FFFFFF" width="1.236" height="10.244"/>
	<path fill="#FFFFFF" d="M111.214,89.037c0.422,0,0.81,0.071,1.167,0.212c0.357,0.142,0.664,0.345,0.924,0.612
		c0.259,0.267,0.461,0.596,0.607,0.988c0.146,0.391,0.219,0.838,0.219,1.338c0,0.195-0.021,0.325-0.062,0.39
		c-0.042,0.065-0.121,0.097-0.237,0.097h-4.68c0.009,0.445,0.069,0.833,0.18,1.162c0.111,0.329,0.264,0.604,0.458,0.824
		c0.195,0.22,0.427,0.385,0.695,0.494c0.269,0.108,0.57,0.163,0.903,0.163c0.31,0,0.578-0.036,0.802-0.108
		c0.224-0.072,0.418-0.15,0.58-0.233c0.162-0.083,0.297-0.161,0.406-0.233c0.109-0.072,0.203-0.108,0.281-0.108
		c0.102,0,0.181,0.04,0.237,0.119l0.347,0.452c-0.153,0.185-0.336,0.346-0.549,0.483c-0.213,0.137-0.441,0.249-0.684,0.337
		c-0.243,0.089-0.494,0.154-0.754,0.198c-0.259,0.044-0.516,0.066-0.77,0.066c-0.486,0-0.935-0.082-1.344-0.246
		c-0.41-0.165-0.764-0.406-1.063-0.723c-0.299-0.318-0.531-0.711-0.698-1.18c-0.166-0.467-0.25-1.005-0.25-1.613
		c0-0.491,0.076-0.95,0.226-1.377c0.15-0.426,0.367-0.796,0.649-1.109c0.283-0.313,0.627-0.559,1.035-0.737
		C110.246,89.126,110.705,89.037,111.214,89.037 M111.242,89.948c-0.597,0-1.067,0.173-1.41,0.518
		c-0.342,0.346-0.555,0.824-0.639,1.436h3.827c0-0.287-0.039-0.55-0.118-0.789c-0.079-0.239-0.195-0.445-0.348-0.619
		c-0.152-0.174-0.338-0.308-0.559-0.403C111.776,89.996,111.524,89.948,111.242,89.948"/>
	<path fill="#FFFFFF" d="M121.958,90.31c-0.056,0.102-0.141,0.153-0.257,0.153c-0.069,0-0.148-0.026-0.236-0.076
		c-0.088-0.052-0.195-0.108-0.323-0.171c-0.127-0.063-0.279-0.12-0.455-0.174c-0.176-0.053-0.384-0.08-0.625-0.08
		c-0.208,0-0.396,0.027-0.562,0.08c-0.167,0.054-0.31,0.126-0.428,0.219c-0.117,0.093-0.208,0.201-0.27,0.323
		c-0.063,0.123-0.094,0.257-0.094,0.4c0,0.181,0.052,0.332,0.156,0.452c0.104,0.121,0.242,0.226,0.413,0.313
		c0.172,0.089,0.366,0.166,0.584,0.233c0.217,0.068,0.441,0.14,0.67,0.216c0.229,0.076,0.452,0.161,0.67,0.254
		c0.217,0.093,0.412,0.209,0.584,0.348c0.171,0.139,0.309,0.309,0.413,0.511s0.156,0.444,0.156,0.727c0,0.324-0.058,0.624-0.174,0.9
		c-0.116,0.276-0.287,0.515-0.514,0.716c-0.227,0.202-0.504,0.361-0.833,0.477c-0.329,0.116-0.708,0.174-1.139,0.174
		c-0.491,0-0.935-0.08-1.334-0.24c-0.398-0.16-0.735-0.365-1.013-0.616l0.291-0.472c0.037-0.061,0.081-0.107,0.132-0.14
		c0.051-0.032,0.118-0.048,0.202-0.048c0.083,0,0.171,0.032,0.263,0.097c0.093,0.065,0.205,0.137,0.337,0.216
		c0.133,0.079,0.292,0.15,0.48,0.215c0.187,0.065,0.422,0.097,0.704,0.097c0.241,0,0.452-0.031,0.633-0.093
		c0.18-0.063,0.331-0.148,0.451-0.254c0.12-0.107,0.209-0.23,0.267-0.369c0.058-0.139,0.087-0.287,0.087-0.445
		c0-0.194-0.052-0.356-0.156-0.483c-0.104-0.128-0.242-0.237-0.413-0.327c-0.172-0.091-0.367-0.169-0.587-0.237
		c-0.22-0.067-0.445-0.138-0.674-0.212c-0.229-0.074-0.454-0.159-0.674-0.253c-0.219-0.096-0.415-0.215-0.586-0.359
		c-0.172-0.143-0.31-0.321-0.414-0.531c-0.104-0.211-0.156-0.468-0.156-0.769c0-0.269,0.056-0.527,0.167-0.775
		c0.111-0.248,0.273-0.466,0.486-0.654s0.475-0.338,0.785-0.449c0.31-0.111,0.664-0.166,1.062-0.166
		c0.463,0,0.879,0.072,1.247,0.218c0.368,0.146,0.686,0.347,0.955,0.602L121.958,90.31z"/>
	<polygon fill-rule="evenodd" clip-rule="evenodd" fill="#C8D2D5" points="40.529,86.678 40.529,96.414 48.169,91.546 	"/>
	<path fill-rule="evenodd" clip-rule="evenodd" fill="#F39C12" d="M327.354,75.712c-8.822,0-15.974,7.089-15.974,15.833
		c0,8.745,7.151,15.834,15.974,15.834s15.974-7.089,15.974-15.834C343.328,82.801,336.177,75.712,327.354,75.712"/>
	<path fill="#FFFFFF" d="M328.412,92.55h1.177v0.548c0,0.057-0.018,0.106-0.052,0.145s-0.088,0.059-0.16,0.059h-0.965v2.025h-0.851
		v-2.025h-3.441c-0.072,0-0.135-0.021-0.187-0.062c-0.053-0.041-0.086-0.092-0.102-0.153l-0.097-0.489l3.777-4.969h0.899V92.55z
		 M327.562,89.375c0-0.093,0.003-0.193,0.008-0.301c0.006-0.107,0.018-0.219,0.035-0.333l-2.823,3.809h2.78V89.375z"/>
</g>
<g>
	<rect x="19" y="119.589" fill="#2E7886" width="341" height="43"/>
	<polygon fill="#FFFFFF" points="77.031,137.627 77.031,140.597 79.858,140.597 79.858,141.535 77.031,141.535 77.031,144.525 
		76.017,144.525 76.017,141.535 73.204,141.535 73.204,140.597 76.017,140.597 76.017,137.627 	"/>
	<path fill="#FFFFFF" d="M89.063,142.484c0.048,0.123,0.096,0.247,0.142,0.372c0.046-0.13,0.095-0.254,0.146-0.372
		c0.051-0.118,0.109-0.237,0.174-0.358L92.893,136c0.06-0.107,0.123-0.172,0.188-0.195s0.157-0.034,0.277-0.034h0.994v9.965h-1.181
		v-7.322c0-0.098,0.002-0.202,0.007-0.313c0.005-0.111,0.011-0.225,0.021-0.341l-3.41,6.231c-0.116,0.208-0.278,0.312-0.486,0.312
		h-0.195c-0.208,0-0.37-0.104-0.486-0.312l-3.486-6.252c0.013,0.12,0.024,0.238,0.031,0.354s0.01,0.223,0.01,0.32v7.322h-1.18
		v-9.965h0.993c0.12,0,0.213,0.011,0.278,0.034c0.064,0.023,0.127,0.088,0.187,0.195l3.438,6.133
		C88.958,142.244,89.014,142.361,89.063,142.484"/>
	<path fill="#FFFFFF" d="M103.97,145.735h-0.548c-0.121,0-0.218-0.019-0.292-0.056c-0.074-0.037-0.123-0.115-0.146-0.236
		l-0.139-0.653c-0.185,0.166-0.366,0.316-0.541,0.448c-0.176,0.132-0.361,0.243-0.556,0.334c-0.194,0.09-0.402,0.159-0.622,0.205
		c-0.219,0.046-0.464,0.069-0.732,0.069c-0.274,0-0.529-0.038-0.768-0.115c-0.238-0.076-0.446-0.192-0.621-0.345
		c-0.176-0.154-0.316-0.349-0.42-0.583c-0.105-0.235-0.156-0.514-0.156-0.834c0-0.279,0.076-0.548,0.229-0.806
		c0.152-0.259,0.399-0.487,0.739-0.688c0.341-0.2,0.786-0.364,1.337-0.492c0.551-0.128,1.225-0.191,2.021-0.191v-0.554
		c0-0.55-0.117-0.967-0.351-1.249c-0.233-0.283-0.58-0.423-1.038-0.423c-0.301,0-0.555,0.038-0.76,0.114
		c-0.206,0.077-0.385,0.162-0.535,0.258c-0.151,0.095-0.28,0.181-0.389,0.257c-0.109,0.077-0.216,0.115-0.323,0.115
		c-0.083,0-0.157-0.022-0.219-0.066c-0.063-0.044-0.112-0.099-0.149-0.164l-0.223-0.396c0.39-0.376,0.808-0.656,1.258-0.842
		c0.449-0.186,0.946-0.278,1.493-0.278c0.393,0,0.743,0.065,1.049,0.195c0.305,0.13,0.562,0.311,0.77,0.542
		c0.209,0.232,0.366,0.513,0.473,0.842c0.106,0.329,0.159,0.69,0.159,1.085V145.735z M100.762,144.978
		c0.217,0,0.417-0.021,0.597-0.066c0.181-0.044,0.351-0.106,0.51-0.188c0.16-0.081,0.313-0.18,0.459-0.296
		c0.146-0.115,0.288-0.247,0.427-0.396v-1.454c-0.57,0-1.054,0.036-1.451,0.108c-0.399,0.072-0.723,0.167-0.973,0.283
		c-0.25,0.117-0.432,0.255-0.545,0.413c-0.113,0.157-0.17,0.336-0.17,0.531c0,0.187,0.03,0.348,0.09,0.483
		c0.06,0.135,0.141,0.245,0.243,0.332c0.102,0.086,0.223,0.149,0.361,0.188C100.45,144.957,100.6,144.978,100.762,144.978"/>
	<path fill="#FFFFFF" d="M108.068,145.735v-7.045h0.708c0.134,0,0.227,0.026,0.278,0.077c0.051,0.051,0.086,0.139,0.104,0.264
		l0.083,1.101c0.241-0.493,0.539-0.876,0.893-1.152c0.354-0.275,0.769-0.414,1.247-0.414c0.194,0,0.37,0.023,0.527,0.066
		c0.158,0.044,0.304,0.105,0.438,0.185l-0.16,0.925c-0.032,0.115-0.104,0.174-0.215,0.174c-0.065,0-0.165-0.022-0.299-0.066
		s-0.322-0.066-0.562-0.066c-0.431,0-0.791,0.126-1.08,0.376c-0.29,0.25-0.531,0.614-0.726,1.092v4.485H108.068z"/>
	<path fill="#FFFFFF" d="M117.173,135.492v6.029h0.319c0.093,0,0.169-0.013,0.23-0.038c0.06-0.025,0.127-0.078,0.201-0.157
		l2.223-2.385c0.069-0.074,0.138-0.135,0.208-0.181c0.069-0.047,0.162-0.07,0.277-0.07h1.125l-2.59,2.762
		c-0.065,0.078-0.128,0.148-0.191,0.208c-0.062,0.062-0.133,0.114-0.212,0.16c0.084,0.056,0.159,0.119,0.226,0.191
		c0.067,0.071,0.131,0.154,0.191,0.247l2.75,3.477h-1.111c-0.102,0-0.188-0.02-0.26-0.059c-0.072-0.04-0.14-0.102-0.205-0.185
		l-2.313-2.886c-0.069-0.098-0.139-0.161-0.208-0.191c-0.07-0.03-0.174-0.045-0.313-0.045h-0.347v3.365h-1.243v-10.243H117.173z"/>
	<path fill="#FFFFFF" d="M127.757,138.58c0.422,0,0.81,0.07,1.167,0.212s0.664,0.344,0.924,0.611
		c0.259,0.267,0.461,0.596,0.607,0.988c0.146,0.392,0.219,0.838,0.219,1.338c0,0.195-0.021,0.325-0.062,0.39
		c-0.042,0.065-0.121,0.098-0.237,0.098h-4.68c0.009,0.445,0.069,0.832,0.18,1.161c0.111,0.329,0.264,0.604,0.458,0.824
		c0.195,0.221,0.427,0.385,0.695,0.494c0.269,0.108,0.57,0.163,0.903,0.163c0.31,0,0.578-0.036,0.802-0.107
		c0.224-0.072,0.418-0.15,0.58-0.233c0.162-0.083,0.297-0.161,0.406-0.233c0.109-0.071,0.203-0.108,0.281-0.108
		c0.102,0,0.181,0.04,0.237,0.119l0.347,0.452c-0.153,0.186-0.336,0.346-0.549,0.483c-0.213,0.137-0.441,0.249-0.684,0.337
		c-0.243,0.089-0.494,0.154-0.754,0.198c-0.259,0.044-0.516,0.066-0.77,0.066c-0.486,0-0.935-0.082-1.344-0.247
		c-0.41-0.164-0.764-0.405-1.063-0.723c-0.299-0.318-0.531-0.711-0.698-1.18c-0.166-0.468-0.25-1.006-0.25-1.613
		c0-0.491,0.076-0.95,0.226-1.377c0.15-0.426,0.367-0.796,0.649-1.108c0.283-0.313,0.627-0.56,1.035-0.737
		C126.789,138.669,127.248,138.58,127.757,138.58 M127.785,139.49c-0.597,0-1.067,0.173-1.41,0.519
		c-0.342,0.346-0.555,0.824-0.639,1.436h3.827c0-0.287-0.039-0.55-0.118-0.789c-0.079-0.238-0.195-0.445-0.348-0.619
		c-0.152-0.174-0.338-0.308-0.559-0.403C128.319,139.538,128.067,139.49,127.785,139.49"/>
	<path fill="#FFFFFF" d="M136.604,145.847c-0.556,0-0.982-0.155-1.281-0.466c-0.299-0.311-0.448-0.758-0.448-1.342v-4.312h-0.848
		c-0.073,0-0.136-0.022-0.187-0.066c-0.051-0.043-0.076-0.112-0.076-0.205v-0.494l1.153-0.146l0.284-2.177
		c0.009-0.07,0.04-0.127,0.091-0.171c0.05-0.044,0.115-0.065,0.194-0.065h0.625v2.427h2.014v0.897h-2.014v4.228
		c0,0.297,0.072,0.518,0.215,0.662c0.144,0.143,0.329,0.214,0.556,0.214c0.129,0,0.242-0.017,0.337-0.052
		c0.094-0.035,0.177-0.073,0.246-0.114c0.07-0.042,0.129-0.08,0.178-0.115c0.048-0.035,0.091-0.052,0.128-0.052
		c0.064,0,0.123,0.039,0.173,0.119l0.362,0.59c-0.213,0.199-0.471,0.355-0.771,0.47C137.234,145.79,136.923,145.847,136.604,145.847
		"/>
	<path fill="#FFFFFF" d="M143.529,136.479c0,0.121-0.025,0.233-0.073,0.338c-0.049,0.104-0.114,0.197-0.195,0.278
		c-0.081,0.081-0.175,0.146-0.281,0.191s-0.22,0.069-0.34,0.069c-0.121,0-0.233-0.023-0.337-0.069s-0.197-0.11-0.278-0.191
		s-0.145-0.174-0.191-0.278s-0.069-0.217-0.069-0.338c0-0.119,0.023-0.234,0.069-0.344c0.046-0.108,0.11-0.203,0.191-0.285
		c0.081-0.081,0.174-0.145,0.278-0.19c0.104-0.047,0.216-0.07,0.337-0.07c0.12,0,0.234,0.023,0.34,0.07
		c0.106,0.046,0.2,0.109,0.281,0.19c0.081,0.082,0.146,0.177,0.195,0.285C143.504,136.244,143.529,136.359,143.529,136.479
		 M143.251,145.735h-1.236v-7.045h1.236V145.735z"/>
	<path fill="#FFFFFF" d="M147.654,145.735v-7.045h0.736c0.176,0,0.287,0.086,0.333,0.258l0.098,0.766
		c0.305-0.339,0.646-0.612,1.024-0.821c0.377-0.209,0.813-0.312,1.309-0.312c0.385,0,0.723,0.063,1.018,0.19
		c0.293,0.128,0.539,0.309,0.736,0.543c0.197,0.235,0.346,0.516,0.447,0.845c0.102,0.329,0.153,0.693,0.153,1.092v4.485h-1.235
		v-4.485c0-0.533-0.123-0.947-0.365-1.241c-0.244-0.294-0.615-0.441-1.115-0.441c-0.366,0-0.707,0.088-1.024,0.264
		c-0.318,0.177-0.611,0.415-0.879,0.718v5.187H147.654z"/>
	<path fill="#FFFFFF" d="M159.967,138.572c0.306,0,0.592,0.034,0.858,0.102s0.508,0.165,0.726,0.295h1.91v0.459
		c0,0.153-0.098,0.251-0.292,0.292l-0.799,0.111c0.158,0.302,0.237,0.638,0.237,1.009c0,0.343-0.067,0.655-0.199,0.936
		c-0.131,0.28-0.314,0.521-0.548,0.72s-0.512,0.353-0.833,0.459c-0.323,0.106-0.675,0.16-1.06,0.16c-0.328,0-0.639-0.04-0.931-0.119
		c-0.147,0.097-0.259,0.199-0.336,0.31s-0.115,0.218-0.115,0.323c0,0.173,0.068,0.304,0.201,0.394
		c0.135,0.087,0.313,0.151,0.535,0.189c0.223,0.038,0.475,0.058,0.757,0.058h0.866c0.294,0,0.582,0.025,0.864,0.077
		c0.282,0.052,0.535,0.136,0.757,0.253c0.222,0.118,0.4,0.28,0.535,0.486c0.134,0.206,0.201,0.474,0.201,0.803
		c0,0.305-0.075,0.601-0.226,0.887c-0.15,0.286-0.367,0.541-0.649,0.764c-0.282,0.223-0.628,0.401-1.035,0.535
		c-0.407,0.134-0.868,0.2-1.382,0.2s-0.964-0.051-1.351-0.152c-0.386-0.103-0.707-0.239-0.962-0.411
		c-0.254-0.172-0.445-0.37-0.573-0.595c-0.127-0.226-0.19-0.461-0.19-0.707c0-0.349,0.109-0.644,0.329-0.887
		c0.221-0.244,0.522-0.438,0.906-0.582c-0.198-0.093-0.357-0.217-0.475-0.371c-0.119-0.155-0.177-0.362-0.177-0.622
		c0-0.102,0.018-0.207,0.055-0.315c0.038-0.108,0.094-0.217,0.17-0.323c0.077-0.106,0.17-0.208,0.282-0.306
		c0.111-0.097,0.241-0.183,0.388-0.257c-0.346-0.194-0.619-0.453-0.815-0.775c-0.197-0.322-0.295-0.698-0.295-1.13
		c0-0.343,0.065-0.655,0.197-0.936c0.132-0.28,0.317-0.52,0.553-0.715c0.235-0.198,0.517-0.351,0.844-0.457
		C159.221,138.626,159.578,138.572,159.967,138.572 M162.162,146.093c0-0.18-0.049-0.323-0.146-0.433
		c-0.097-0.108-0.229-0.192-0.396-0.252c-0.167-0.059-0.358-0.103-0.576-0.131c-0.218-0.028-0.447-0.042-0.687-0.042h-0.737
		c-0.25,0-0.488-0.032-0.715-0.095c-0.264,0.126-0.478,0.279-0.643,0.46c-0.164,0.181-0.246,0.397-0.246,0.647
		c0,0.158,0.04,0.306,0.121,0.442c0.081,0.138,0.205,0.256,0.372,0.355c0.167,0.101,0.376,0.179,0.629,0.237
		c0.252,0.058,0.549,0.087,0.891,0.087c0.334,0,0.633-0.031,0.897-0.093s0.487-0.148,0.67-0.262c0.183-0.114,0.323-0.249,0.42-0.404
		C162.113,146.455,162.162,146.282,162.162,146.093 M159.967,142.293c0.25,0,0.472-0.034,0.664-0.104
		c0.191-0.07,0.353-0.167,0.482-0.292c0.13-0.125,0.227-0.275,0.292-0.449s0.097-0.365,0.097-0.573c0-0.432-0.131-0.774-0.392-1.029
		c-0.262-0.255-0.643-0.383-1.143-0.383c-0.495,0-0.874,0.128-1.135,0.383c-0.261,0.255-0.392,0.598-0.392,1.029
		c0,0.208,0.033,0.399,0.1,0.573c0.068,0.174,0.165,0.324,0.295,0.449c0.13,0.125,0.289,0.222,0.48,0.292
		C159.504,142.259,159.722,142.293,159.967,142.293"/>
	<polygon fill-rule="evenodd" clip-rule="evenodd" fill="#C8D2D5" points="40.529,136.221 40.529,145.957 48.169,141.089 	"/>
	<path fill-rule="evenodd" clip-rule="evenodd" fill="#E74C3C" d="M327.354,125.256c-8.822,0-15.974,7.089-15.974,15.833
		c0,8.745,7.151,15.834,15.974,15.834s15.974-7.089,15.974-15.834C343.328,132.345,336.177,125.256,327.354,125.256"/>
	<path fill="#FFFFFF" d="M321.84,144.141h1.669v-5.249c0-0.157,0.006-0.317,0.017-0.478l-1.388,1.176
		c-0.036,0.029-0.072,0.049-0.108,0.062c-0.036,0.012-0.07,0.018-0.103,0.018c-0.055,0-0.104-0.012-0.147-0.034
		c-0.044-0.023-0.075-0.052-0.097-0.083l-0.304-0.414l2.309-1.982h0.786v6.984h1.528v0.73h-4.162V144.141z"/>
	<path fill="#FFFFFF" d="M331.063,141.712c-0.293,0-0.57-0.048-0.832-0.146c-0.262-0.095-0.492-0.237-0.691-0.426
		c-0.198-0.188-0.356-0.419-0.475-0.692c-0.117-0.274-0.176-0.59-0.176-0.943c0-0.336,0.063-0.652,0.19-0.945
		c0.126-0.294,0.303-0.55,0.53-0.769c0.229-0.218,0.499-0.39,0.813-0.517c0.314-0.125,0.659-0.188,1.035-0.188
		c0.372,0,0.71,0.062,1.014,0.184c0.303,0.121,0.563,0.291,0.78,0.51s0.384,0.48,0.501,0.785c0.117,0.304,0.177,0.641,0.177,1.01
		c0,0.222-0.021,0.432-0.062,0.631c-0.042,0.199-0.103,0.393-0.182,0.583c-0.08,0.189-0.175,0.378-0.286,0.566
		c-0.108,0.188-0.234,0.382-0.375,0.583l-1.892,2.707c-0.047,0.068-0.114,0.123-0.2,0.164c-0.087,0.041-0.187,0.062-0.299,0.062
		h-0.889l2.363-3.068c0.079-0.104,0.153-0.201,0.222-0.295c0.069-0.094,0.134-0.186,0.194-0.279
		c-0.197,0.158-0.422,0.277-0.671,0.359C331.605,141.671,331.342,141.712,331.063,141.712 M333.004,139.461
		c0-0.24-0.039-0.457-0.117-0.652c-0.077-0.195-0.185-0.361-0.322-0.497s-0.301-0.241-0.49-0.314s-0.398-0.11-0.626-0.11
		c-0.238,0-0.456,0.039-0.653,0.115c-0.197,0.078-0.365,0.184-0.504,0.32c-0.141,0.136-0.247,0.299-0.322,0.488
		c-0.076,0.19-0.114,0.398-0.114,0.623c0,0.244,0.035,0.462,0.105,0.653c0.071,0.191,0.172,0.353,0.304,0.485
		s0.293,0.233,0.482,0.302c0.189,0.066,0.402,0.103,0.637,0.103c0.261,0,0.49-0.043,0.691-0.127s0.369-0.196,0.507-0.336
		c0.137-0.14,0.241-0.301,0.314-0.483C332.968,139.848,333.004,139.658,333.004,139.461"/>
</g>
<g>
	<rect x="19" y="169.132" fill="#2E7886" width="341" height="43"/>
	<polygon fill="#FFFFFF" points="77.031,187.17 77.031,190.14 79.858,190.14 79.858,191.078 77.031,191.078 77.031,194.068 
		76.017,194.068 76.017,191.078 73.204,191.078 73.204,190.14 76.017,190.14 76.017,187.17 	"/>
	<path fill="#FFFFFF" d="M92.622,190.299c0,0.747-0.118,1.426-0.354,2.038c-0.236,0.612-0.57,1.136-1,1.571
		c-0.431,0.437-0.947,0.773-1.549,1.013c-0.602,0.238-1.269,0.356-2,0.356h-3.723v-9.964h3.723c0.731,0,1.398,0.119,2,0.357
		c0.602,0.239,1.118,0.577,1.549,1.016c0.43,0.438,0.764,0.963,1,1.575C92.504,188.874,92.622,189.553,92.622,190.299
		 M91.24,190.299c0-0.611-0.083-1.158-0.25-1.641s-0.403-0.891-0.708-1.224c-0.306-0.334-0.677-0.589-1.112-0.766
		c-0.435-0.176-0.919-0.264-1.451-0.264H85.35v7.781h2.369c0.532,0,1.016-0.088,1.451-0.264c0.435-0.177,0.806-0.431,1.112-0.762
		c0.305-0.332,0.541-0.738,0.708-1.221S91.24,190.911,91.24,190.299"/>
	<path fill="#FFFFFF" d="M99.269,188.123c0.422,0,0.81,0.07,1.167,0.212s0.664,0.345,0.924,0.611
		c0.259,0.267,0.461,0.596,0.607,0.988c0.146,0.392,0.219,0.838,0.219,1.338c0,0.195-0.021,0.325-0.062,0.39
		c-0.042,0.065-0.121,0.098-0.237,0.098h-4.68c0.009,0.445,0.069,0.832,0.18,1.161c0.111,0.329,0.264,0.604,0.458,0.824
		c0.195,0.221,0.427,0.385,0.695,0.494c0.269,0.108,0.57,0.163,0.903,0.163c0.31,0,0.578-0.036,0.802-0.107
		c0.224-0.072,0.418-0.15,0.58-0.233c0.162-0.083,0.297-0.161,0.406-0.233c0.109-0.071,0.203-0.108,0.281-0.108
		c0.102,0,0.181,0.04,0.237,0.119l0.347,0.452c-0.153,0.186-0.336,0.346-0.549,0.483c-0.213,0.137-0.441,0.249-0.684,0.337
		c-0.243,0.089-0.494,0.154-0.754,0.198c-0.259,0.044-0.516,0.066-0.77,0.066c-0.486,0-0.935-0.082-1.344-0.247
		c-0.41-0.164-0.764-0.405-1.063-0.723c-0.299-0.318-0.531-0.711-0.698-1.18c-0.166-0.468-0.25-1.005-0.25-1.613
		c0-0.491,0.076-0.95,0.226-1.377c0.15-0.426,0.367-0.796,0.649-1.108c0.283-0.313,0.627-0.56,1.035-0.737
		C98.3,188.212,98.759,188.123,99.269,188.123 M99.296,189.033c-0.597,0-1.067,0.173-1.41,0.519
		c-0.342,0.346-0.555,0.824-0.639,1.436h3.827c0-0.287-0.039-0.55-0.118-0.789c-0.079-0.238-0.195-0.445-0.348-0.619
		c-0.152-0.174-0.338-0.308-0.559-0.403C99.831,189.081,99.579,189.033,99.296,189.033"/>
	<path fill="#FFFFFF" d="M104.915,188.233h1.014c0.097,0,0.178,0.026,0.243,0.077s0.111,0.111,0.139,0.181l1.785,4.534
		c0.065,0.167,0.115,0.334,0.152,0.501c0.038,0.167,0.072,0.331,0.105,0.493c0.037-0.162,0.076-0.326,0.118-0.493
		s0.095-0.334,0.16-0.501l1.805-4.534c0.028-0.074,0.073-0.136,0.136-0.185c0.062-0.049,0.14-0.073,0.232-0.073h0.965l-2.868,7.045
		h-1.118L104.915,188.233z"/>
	<path fill="#FFFFFF" d="M117.742,188.123c0.422,0,0.81,0.07,1.167,0.212c0.357,0.142,0.664,0.345,0.924,0.611
		c0.259,0.267,0.461,0.596,0.607,0.988c0.146,0.392,0.219,0.838,0.219,1.338c0,0.195-0.021,0.325-0.062,0.39
		c-0.042,0.065-0.121,0.098-0.237,0.098h-4.68c0.009,0.445,0.069,0.832,0.18,1.161c0.111,0.329,0.264,0.604,0.458,0.824
		c0.195,0.221,0.427,0.385,0.695,0.494c0.269,0.108,0.57,0.163,0.903,0.163c0.31,0,0.578-0.036,0.802-0.107
		c0.224-0.072,0.418-0.15,0.58-0.233c0.162-0.083,0.297-0.161,0.406-0.233c0.109-0.071,0.203-0.108,0.281-0.108
		c0.102,0,0.181,0.04,0.237,0.119l0.347,0.452c-0.153,0.186-0.336,0.346-0.549,0.483c-0.213,0.137-0.441,0.249-0.684,0.337
		c-0.243,0.089-0.494,0.154-0.754,0.198c-0.259,0.044-0.516,0.066-0.77,0.066c-0.486,0-0.935-0.082-1.344-0.247
		c-0.41-0.164-0.764-0.405-1.063-0.723c-0.299-0.318-0.531-0.711-0.698-1.18c-0.166-0.468-0.25-1.005-0.25-1.613
		c0-0.491,0.076-0.95,0.226-1.377c0.15-0.426,0.367-0.796,0.649-1.108c0.283-0.313,0.627-0.56,1.035-0.737
		C116.774,188.212,117.233,188.123,117.742,188.123 M117.77,189.033c-0.597,0-1.067,0.173-1.41,0.519
		c-0.342,0.346-0.555,0.824-0.639,1.436h3.827c0-0.287-0.039-0.55-0.118-0.789c-0.079-0.238-0.195-0.445-0.348-0.619
		c-0.152-0.174-0.338-0.308-0.559-0.403C118.304,189.081,118.052,189.033,117.77,189.033"/>
	<rect x="124.597" y="185.035" fill="#FFFFFF" width="1.236" height="10.243"/>
	<path fill="#FFFFFF" d="M133.083,188.123c0.514,0,0.978,0.085,1.393,0.257c0.414,0.172,0.766,0.415,1.055,0.73
		c0.289,0.315,0.512,0.696,0.667,1.144c0.155,0.447,0.233,0.947,0.233,1.499c0,0.556-0.078,1.057-0.233,1.502
		c-0.155,0.445-0.378,0.825-0.667,1.141c-0.289,0.315-0.641,0.558-1.055,0.727c-0.415,0.169-0.879,0.254-1.393,0.254
		s-0.978-0.085-1.393-0.254c-0.414-0.169-0.767-0.411-1.059-0.727c-0.291-0.315-0.516-0.695-0.673-1.141
		c-0.158-0.445-0.236-0.946-0.236-1.502c0-0.552,0.078-1.052,0.236-1.499c0.157-0.447,0.382-0.828,0.673-1.144
		c0.292-0.315,0.645-0.559,1.059-0.73C132.105,188.208,132.569,188.123,133.083,188.123 M133.083,194.409
		c0.695,0,1.213-0.232,1.556-0.699c0.342-0.466,0.514-1.116,0.514-1.95c0-0.839-0.172-1.493-0.514-1.961
		c-0.343-0.469-0.861-0.702-1.556-0.702c-0.352,0-0.657,0.06-0.917,0.181c-0.259,0.12-0.476,0.294-0.649,0.521
		c-0.174,0.227-0.303,0.507-0.389,0.838S131,191.343,131,191.76s0.042,0.79,0.128,1.119c0.086,0.33,0.215,0.606,0.389,0.831
		c0.173,0.226,0.39,0.398,0.649,0.519C132.426,194.349,132.731,194.409,133.083,194.409"/>
	<path fill="#FFFFFF" d="M140.182,197.664v-9.431h0.736c0.176,0,0.287,0.086,0.333,0.258l0.105,0.834
		c0.301-0.365,0.645-0.66,1.031-0.883c0.386-0.223,0.832-0.334,1.337-0.334c0.402,0,0.768,0.078,1.097,0.233
		c0.329,0.155,0.609,0.385,0.841,0.688c0.231,0.304,0.409,0.681,0.534,1.13c0.125,0.45,0.188,0.967,0.188,1.551
		c0,0.52-0.07,1.004-0.209,1.45c-0.138,0.447-0.338,0.834-0.597,1.161c-0.259,0.327-0.577,0.584-0.955,0.772
		c-0.377,0.188-0.802,0.281-1.274,0.281c-0.435,0-0.807-0.072-1.115-0.216s-0.58-0.348-0.816-0.611v3.115H140.182z M143.313,189.11
		c-0.403,0-0.756,0.093-1.059,0.278c-0.303,0.186-0.582,0.447-0.837,0.785v3.408c0.227,0.306,0.476,0.521,0.747,0.646
		s0.573,0.188,0.906,0.188c0.653,0,1.155-0.233,1.507-0.701c0.352-0.469,0.528-1.137,0.528-2.004c0-0.459-0.041-0.853-0.122-1.183
		c-0.081-0.329-0.197-0.599-0.35-0.81c-0.153-0.211-0.341-0.365-0.563-0.462C143.849,189.159,143.597,189.11,143.313,189.11"/>
	<path fill="#FFFFFF" d="M150.071,195.278v-7.045h0.736c0.176,0,0.287,0.086,0.334,0.258l0.09,0.724
		c0.259-0.32,0.55-0.583,0.871-0.786c0.323-0.204,0.697-0.306,1.122-0.306c0.477,0,0.863,0.132,1.157,0.396
		c0.294,0.265,0.505,0.622,0.635,1.071c0.097-0.255,0.226-0.475,0.386-0.66c0.159-0.186,0.339-0.339,0.538-0.459
		c0.198-0.121,0.41-0.209,0.635-0.265s0.453-0.083,0.684-0.083c0.371,0,0.701,0.059,0.99,0.176c0.29,0.119,0.535,0.292,0.736,0.52
		c0.201,0.227,0.356,0.506,0.462,0.838c0.106,0.331,0.16,0.71,0.16,1.137v4.485h-1.236v-4.485c0-0.552-0.121-0.97-0.362-1.255
		s-0.59-0.428-1.048-0.428c-0.204,0-0.397,0.036-0.58,0.107c-0.183,0.072-0.344,0.178-0.483,0.316
		c-0.139,0.14-0.249,0.314-0.33,0.525s-0.121,0.455-0.121,0.733v4.485h-1.236v-4.485c0-0.565-0.114-0.987-0.341-1.266
		s-0.558-0.417-0.993-0.417c-0.305,0-0.589,0.082-0.851,0.247c-0.262,0.164-0.501,0.388-0.719,0.671v5.25H150.071z"/>
	<path fill="#FFFFFF" d="M166.482,188.123c0.421,0,0.81,0.07,1.167,0.212c0.356,0.142,0.664,0.345,0.924,0.611
		c0.258,0.267,0.461,0.596,0.607,0.988c0.145,0.392,0.219,0.838,0.219,1.338c0,0.195-0.021,0.325-0.063,0.39
		c-0.042,0.065-0.12,0.098-0.236,0.098h-4.681c0.009,0.445,0.07,0.832,0.181,1.161c0.111,0.329,0.264,0.604,0.458,0.824
		c0.194,0.221,0.426,0.385,0.694,0.494c0.269,0.108,0.571,0.163,0.904,0.163c0.309,0,0.577-0.036,0.801-0.107
		c0.225-0.072,0.418-0.15,0.58-0.233c0.162-0.083,0.298-0.161,0.407-0.233c0.108-0.071,0.202-0.108,0.281-0.108
		c0.101,0,0.181,0.04,0.236,0.119l0.348,0.452c-0.153,0.186-0.336,0.346-0.549,0.483c-0.213,0.137-0.441,0.249-0.685,0.337
		c-0.243,0.089-0.494,0.154-0.753,0.198s-0.516,0.066-0.771,0.066c-0.486,0-0.934-0.082-1.344-0.247
		c-0.409-0.164-0.763-0.405-1.062-0.723c-0.299-0.318-0.531-0.711-0.698-1.18c-0.166-0.468-0.25-1.005-0.25-1.613
		c0-0.491,0.075-0.95,0.225-1.377c0.15-0.426,0.367-0.796,0.65-1.108c0.282-0.313,0.627-0.56,1.035-0.737
		C165.514,188.212,165.972,188.123,166.482,188.123 M166.51,189.033c-0.598,0-1.067,0.173-1.41,0.519
		c-0.343,0.346-0.556,0.824-0.639,1.436h3.826c0-0.287-0.039-0.55-0.118-0.789c-0.078-0.238-0.194-0.445-0.347-0.619
		s-0.339-0.308-0.559-0.403C167.043,189.081,166.792,189.033,166.51,189.033"/>
	<path fill="#FFFFFF" d="M173.198,195.278v-7.045h0.736c0.176,0,0.287,0.086,0.334,0.258l0.097,0.765
		c0.306-0.338,0.647-0.611,1.024-0.82s0.814-0.312,1.31-0.312c0.384,0,0.723,0.063,1.017,0.19c0.294,0.128,0.54,0.309,0.736,0.543
		c0.197,0.234,0.347,0.516,0.448,0.845c0.102,0.329,0.152,0.693,0.152,1.092v4.485h-1.235v-4.485c0-0.533-0.122-0.947-0.365-1.241
		c-0.243-0.295-0.614-0.441-1.114-0.441c-0.367,0-0.707,0.088-1.025,0.264c-0.317,0.177-0.61,0.415-0.879,0.717v5.188H173.198z"/>
	<path fill="#FFFFFF" d="M185.276,195.39c-0.556,0-0.983-0.155-1.282-0.466c-0.298-0.311-0.447-0.758-0.447-1.342v-4.312h-0.848
		c-0.074,0-0.137-0.022-0.188-0.067c-0.05-0.043-0.076-0.111-0.076-0.204v-0.494l1.153-0.146l0.285-2.177
		c0.008-0.07,0.039-0.127,0.09-0.171s0.116-0.065,0.195-0.065h0.625v2.427h2.014v0.897h-2.014v4.228
		c0,0.297,0.071,0.518,0.215,0.661c0.143,0.144,0.329,0.215,0.555,0.215c0.13,0,0.243-0.017,0.337-0.052
		c0.095-0.036,0.177-0.073,0.246-0.114c0.071-0.042,0.129-0.08,0.178-0.115c0.049-0.035,0.091-0.052,0.128-0.052
		c0.065,0,0.123,0.039,0.174,0.118l0.361,0.591c-0.213,0.199-0.47,0.355-0.77,0.47C185.905,195.333,185.595,195.39,185.276,195.39"
		/>
	<polygon fill-rule="evenodd" clip-rule="evenodd" fill="#C8D2D5" points="40.529,185.764 40.529,195.5 48.169,190.632 	"/>
	<path fill-rule="evenodd" clip-rule="evenodd" fill="#60CDE2" d="M327.354,174.799c-8.822,0-15.974,7.089-15.974,15.833
		c0,8.745,7.151,15.834,15.974,15.834s15.974-7.089,15.974-15.834C343.328,181.888,336.177,174.799,327.354,174.799"/>
	<path fill="#FFFFFF" d="M328.819,187.135c0,0.136-0.044,0.248-0.131,0.336c-0.086,0.088-0.232,0.132-0.438,0.132h-2.438
		l-0.358,2.02c0.405-0.086,0.778-0.129,1.122-0.129c0.404,0,0.762,0.059,1.07,0.177s0.568,0.281,0.777,0.489
		s0.368,0.454,0.475,0.736s0.16,0.591,0.16,0.924c0,0.408-0.072,0.777-0.218,1.106c-0.144,0.329-0.342,0.611-0.593,0.846
		c-0.251,0.235-0.547,0.415-0.886,0.54c-0.34,0.126-0.707,0.188-1.101,0.188c-0.228,0-0.446-0.022-0.655-0.067
		c-0.21-0.045-0.405-0.104-0.586-0.18s-0.349-0.161-0.504-0.258s-0.293-0.199-0.412-0.307l0.293-0.407
		c0.065-0.094,0.151-0.141,0.26-0.141c0.069,0,0.149,0.027,0.241,0.083c0.093,0.057,0.204,0.117,0.334,0.186s0.282,0.13,0.458,0.186
		c0.175,0.056,0.384,0.083,0.626,0.083c0.271,0,0.515-0.043,0.731-0.129s0.401-0.208,0.556-0.368
		c0.153-0.159,0.271-0.35,0.354-0.572c0.083-0.222,0.125-0.471,0.125-0.745c0-0.241-0.035-0.457-0.105-0.651
		c-0.071-0.193-0.179-0.357-0.32-0.494c-0.143-0.136-0.32-0.241-0.533-0.316c-0.214-0.075-0.463-0.113-0.748-0.113
		c-0.195,0-0.397,0.017-0.607,0.049s-0.427,0.084-0.65,0.155l-0.606-0.177l0.628-3.6h3.681V187.135z"/>
</g>
<text transform="matrix(1 0 0 1 -71 220)" font-family="'MyriadPro-Regular'" font-size="12">#9b59b6</text>
<text transform="matrix(1 0 0 1 -66.6665 157.333)" font-family="'MyriadPro-Regular'" font-size="12">#e74c3c</text>
</svg>
