<?xml version="1.0" encoding="utf-8"?>
<!-- Generator: Adobe Illustrator 16.0.0, SVG Export Plug-In . SVG Version: 6.00 Build 0)  -->
<!DOCTYPE svg PUBLIC "-//W3C//DTD SVG 1.1//EN" "http://www.w3.org/Graphics/SVG/1.1/DTD/svg11.dtd">
<svg version="1.1" id="Layer_1" xmlns="http://www.w3.org/2000/svg" xmlns:xlink="http://www.w3.org/1999/xlink" x="0px" y="0px"
	 width="527px" height="381px" viewBox="0 0 527 381" enable-background="new 0 0 527 381" xml:space="preserve">
<g>
	<g>
		<path fill="none" stroke="#FFFFFF" stroke-width="4.252" stroke-miterlimit="10" d="M227.132,287.747
			c16.048,9.584,34.811,15.094,54.862,15.094c42.529,0,79.271-24.772,96.589-60.674"/>
		<g>
			<polygon fill="#FFFFFF" points="224.644,296.053 217.024,280.9 233.955,281.876 			"/>
		</g>
	</g>
</g>
<g>
	<g>
		<path fill="none" stroke="#FFFFFF" stroke-width="4.252" stroke-miterlimit="10" d="M369.416,133.649
			c-19.423-27.33-51.34-45.16-87.422-45.161c-25.488,0-48.894,8.901-67.29,23.759"/>
		<g>
			<polygon fill="#FFFFFF" points="375.128,127.042 375.908,143.983 360.845,136.19 			"/>
		</g>
	</g>
</g>
<path fill="#767A80" d="M256.993,197.3l7.021-33.85l-16.359-14.737l-4.154-21.607l-32.646-11.541l-26.58-23.943l-21.386,6.987
	l-20.631-7.293l-26.405,22.659l-33.093,10.811l-4.438,21.396l-17.065,14.644l6.747,35.101l-7.022,33.854l16.363,14.737l4.153,21.606
	l32.642,11.539l26.582,23.942l21.388-6.985l20.631,7.293l26.406-22.659l33.09-10.812l4.438-21.394l17.067-14.646L256.993,197.3z
	 M259.062,165.067l-4.335,20.443l-5.642-29.351L259.062,165.067z M252.15,197.662l-9.724,45.853l-36.011,30.901L161.28,289.16
	l-44.321-15.445l-35.375-31.582l-8.737-46.571l9.722-45.846l36.014-30.904l45.133-14.744l44.319,15.445l35.379,31.585
	L252.15,197.662z M239.549,130.495l2.465,13.138l-22.232-20.026L239.549,130.495z M183.496,97.605l15.37,13.721l-27.555-9.739
	L183.496,97.605z M143.838,97.14l11.393,3.971l-25.867,8.45L143.838,97.14z M86.93,129.152l18.141-5.927l-20.64,17.712
	L86.93,129.152z M66.787,163.26l9.722-8.344l-5.927,28.574L66.787,163.26z M65.933,228.16l4.337-20.446l5.642,29.356L65.933,228.16z
	 M85.448,262.732l-2.464-13.134l22.228,20.022L85.448,262.732z M141.5,295.623L126.129,281.9l27.557,9.74L141.5,295.623z
	 M181.159,296.089l-11.393-3.972l25.868-8.449L181.159,296.089z M238.065,264.076l-18.138,5.926l20.637-17.709L238.065,264.076z
	 M254.414,209.732l3.796,20.237l-9.724,8.345L254.414,209.732z"/>
<g>
	<path fill="#35AFC6" d="M156.472,207.901c0.018,0.018,0.035,0.037,0.054,0.052c3.491,3.354,8.454,3.366,11.938,0.014
		c2.354-2.26,4.703-4.529,7.015-6.833c13.223-13.169,26.433-26.35,39.647-39.527c0.164-0.164,0.321-0.337,0.595-0.626H109.318
		c0.238,0.27,0.358,0.422,0.495,0.558C125.366,176.994,140.918,192.449,156.472,207.901 M181.384,199.018
		c-3.66,3.581-7.311,7.169-10.974,10.737c-4.476,4.364-11.048,4.457-15.586,0.208c-2.019-1.888-4.002-3.817-5.981-5.753
		c-1.733-1.694-3.444-3.418-5.15-5.141c-0.188-0.19-0.285-0.468-0.321-0.529c-11.395,11.372-22.625,22.574-33.781,33.706h106.004
		c-11.258-11.229-22.481-22.423-33.744-33.658C181.737,198.692,181.553,198.851,181.384,199.018 M107.238,163.115v67.09
		c11.292-11.252,22.541-22.463,33.647-33.529C129.694,185.513,118.443,174.293,107.238,163.115 M184.121,196.591
		c11.171,11.125,22.418,22.329,33.636,33.504v-67.05C206.516,174.256,195.263,185.478,184.121,196.591"/>
</g>
<g>
	<path fill="#35AFC6" d="M422.62,227.424c0,6.153-4.988,11.143-11.144,11.143h-68.713c-6.153,0-11.144-4.988-11.144-11.143V158.71
		c0-6.154,4.989-11.143,11.144-11.143h68.713c6.154,0,11.144,4.989,11.144,11.143V227.424z"/>
	<path fill="#1B2127" d="M388.478,178.099c0,1.512-1.177,2.738-2.628,2.738h-26.936c-1.451,0-2.628-1.226-2.628-2.738
		c0-1.512,1.177-2.738,2.628-2.738h26.936C387.301,175.361,388.478,176.587,388.478,178.099"/>
	<path fill="#1B2127" d="M392.086,184.944h-5h-23.062h-5c-1.513,0-2.738,1.226-2.738,2.738c0,1.512,1.227,2.737,2.738,2.737h5
		h23.062h5c1.513,0,2.738-1.225,2.738-2.737C394.824,186.17,393.599,184.944,392.086,184.944"/>
	<path fill="#1B2127" d="M384.456,197.264c0,1.512-1.03,2.738-2.3,2.738h-23.57c-1.27,0-2.299-1.227-2.299-2.738
		c0-1.511,1.029-2.738,2.299-2.738h23.57C383.426,194.525,384.456,195.752,384.456,197.264"/>
	<path fill="#1B2127" d="M395.3,204.107h-8.213h-19.85h-8.213c-1.513,0-2.737,1.227-2.737,2.737c0,1.513,1.226,2.738,2.737,2.738
		h8.213h19.85h8.213c1.512,0,2.738-1.226,2.738-2.738C398.038,205.334,396.812,204.107,395.3,204.107"/>
</g>
</svg>
