<?xml version="1.0" encoding="utf-8"?>
<!-- Generator: Adobe Illustrator 16.0.0, SVG Export Plug-In . SVG Version: 6.00 Build 0)  -->
<!DOCTYPE svg PUBLIC "-//W3C//DTD SVG 1.1//EN" "http://www.w3.org/Graphics/SVG/1.1/DTD/svg11.dtd">
<svg version="1.1" id="Layer_1" xmlns="http://www.w3.org/2000/svg" xmlns:xlink="http://www.w3.org/1999/xlink" x="0px" y="0px"
	 width="527px" height="381px" viewBox="0 0 527 381" enable-background="new 0 0 527 381" xml:space="preserve">
<path fill="#767A80" d="M256.479,196.579l7.021-33.849l-16.36-14.738l-4.154-21.607l-32.646-11.541l-26.58-23.943l-21.386,6.987
	l-20.631-7.293l-26.405,22.659l-33.093,10.811l-4.438,21.395l-17.065,14.644l6.747,35.1l-7.022,33.854l16.363,14.738l4.153,21.606
	l32.642,11.539l26.582,23.943l21.388-6.986l20.631,7.293l26.406-22.659l33.09-10.811l4.438-21.394l17.067-14.645L256.479,196.579z
	 M258.548,164.347l-4.335,20.443l-5.642-29.35L258.548,164.347z M251.636,196.942l-9.724,45.852l-36.011,30.901l-45.135,14.745
	l-44.321-15.446L81.07,241.412l-8.737-46.571l9.722-45.846l36.014-30.904l45.133-14.744l44.319,15.445l35.379,31.585
	L251.636,196.942z M239.035,129.775l2.465,13.137l-22.232-20.026L239.035,129.775z M182.982,96.885l15.37,13.721l-27.555-9.74
	L182.982,96.885z M143.324,96.419l11.393,3.971l-25.867,8.45L143.324,96.419z M86.416,128.432l18.141-5.927l-20.64,17.712
	L86.416,128.432z M66.273,162.539l9.722-8.343l-5.927,28.574L66.273,162.539z M65.419,227.44l4.337-20.447l5.642,29.356
	L65.419,227.44z M84.934,262.012l-2.464-13.134l22.228,20.022L84.934,262.012z M140.986,294.902l-15.371-13.722l27.557,9.74
	L140.986,294.902z M180.645,295.368l-11.393-3.971l25.868-8.45L180.645,295.368z M237.551,263.356l-18.138,5.925l20.637-17.709
	L237.551,263.356z M253.9,209.012l3.796,20.237l-9.724,8.345L253.9,209.012z"/>
<text transform="matrix(1 0 0 1 126.4414 238.209)" fill="#35AFC6" font-family="'Gibson-Bold'" font-size="154.5966">t</text>
<g>
	<path fill="#35AFC6" d="M422.62,227.424c0,6.153-4.988,11.143-11.143,11.143h-68.713c-6.154,0-11.144-4.989-11.144-11.143V158.71
		c0-6.154,4.989-11.143,11.144-11.143h68.713c6.154,0,11.143,4.989,11.143,11.143V227.424z"/>
	<path fill="#1B2127" d="M388.478,178.099c0,1.512-1.177,2.738-2.628,2.738h-26.936c-1.451,0-2.628-1.226-2.628-2.738
		c0-1.512,1.177-2.738,2.628-2.738h26.936C387.301,175.361,388.478,176.587,388.478,178.099"/>
	<path fill="#1B2127" d="M392.086,184.944h-5h-23.062h-5c-1.512,0-2.738,1.226-2.738,2.738c0,1.512,1.227,2.737,2.738,2.737h5
		h23.062h5c1.513,0,2.738-1.225,2.738-2.737C394.824,186.17,393.599,184.944,392.086,184.944"/>
	<path fill="#1B2127" d="M384.456,197.264c0,1.512-1.03,2.738-2.3,2.738h-23.57c-1.27,0-2.299-1.227-2.299-2.738
		s1.029-2.738,2.299-2.738h23.57C383.426,194.525,384.456,195.752,384.456,197.264"/>
	<path fill="#1B2127" d="M395.3,204.108h-8.213h-19.85h-8.213c-1.512,0-2.737,1.226-2.737,2.737c0,1.513,1.226,2.738,2.737,2.738
		h8.213h19.85h8.213c1.512,0,2.738-1.226,2.738-2.738C398.038,205.334,396.812,204.108,395.3,204.108"/>
	<polygon fill-rule="evenodd" clip-rule="evenodd" fill="#FFFFFF" points="361.797,126.06 368.329,132.336 371.259,123.762 	"/>
	<path fill="#FFFFFF" d="M298.555,77.456c-29.719-3.085-57.607,8.728-76.23,29.383l2.473,0.257
		c18.2-19.528,45.014-30.614,73.55-27.651c28.537,2.963,52.503,19.321,66.302,42.171l0.272,0.029l1.802-0.435
		C352.671,97.517,327.996,80.513,298.555,77.456"/>
	<polygon fill-rule="evenodd" clip-rule="evenodd" fill="#FFFFFF" points="220.274,286.467 221.272,295.473 228.856,289.368 	"/>
	<path fill="#FFFFFF" d="M306.771,306.436c28.205-9.855,48.416-32.414,56.478-59.031l-2.348,0.82
		c-8.158,25.416-27.705,46.859-54.79,56.322c-27.084,9.464-55.733,4.86-77.945-9.944l-0.259,0.091l-1.445,1.16
		C249.262,311.313,278.826,316.199,306.771,306.436"/>
</g>
</svg>
