<?xml version="1.0" encoding="utf-8"?>
<!-- Generator: Adobe Illustrator 16.0.0, SVG Export Plug-In . SVG Version: 6.00 Build 0)  -->
<!DOCTYPE svg PUBLIC "-//W3C//DTD SVG 1.1//EN" "http://www.w3.org/Graphics/SVG/1.1/DTD/svg11.dtd">
<svg version="1.1" id="Layer_1" xmlns="http://www.w3.org/2000/svg" xmlns:xlink="http://www.w3.org/1999/xlink" x="0px" y="0px"
	 width="527px" height="381px" viewBox="0 0 527 381" enable-background="new 0 0 527 381" xml:space="preserve">
<g>
	<g>
		<path fill="none" stroke="#FFFFFF" stroke-width="4.252" stroke-miterlimit="10" d="M227.132,287.747
			c16.048,9.584,34.811,15.094,54.862,15.094c42.529,0,79.272-24.772,96.589-60.674"/>
		<g>
			<polygon fill="#FFFFFF" points="224.644,296.053 217.024,280.901 233.955,281.876 			"/>
		</g>
	</g>
</g>
<g>
	<g>
		<path fill="none" stroke="#FFFFFF" stroke-width="4.252" stroke-miterlimit="10" d="M369.416,133.649
			c-19.423-27.33-51.34-45.16-87.422-45.161c-25.488,0-48.894,8.901-67.29,23.759"/>
		<g>
			<polygon fill="#FFFFFF" points="375.128,127.042 375.908,143.983 360.845,136.19 			"/>
		</g>
	</g>
</g>
<path fill="#767A80" d="M256.479,196.579l7.021-33.849l-16.36-14.738l-4.154-21.607l-32.646-11.541l-26.58-23.943l-21.386,6.987
	l-20.631-7.293l-26.405,22.659l-33.093,10.811l-4.438,21.395l-17.065,14.644l6.747,35.1l-7.022,33.854l16.363,14.738l4.153,21.606
	l32.642,11.539l26.582,23.943l21.388-6.986l20.631,7.293l26.406-22.659l33.09-10.811l4.438-21.394l17.067-14.645L256.479,196.579z
	 M258.548,164.347l-4.335,20.443l-5.642-29.35L258.548,164.347z M251.636,196.942l-9.724,45.852l-36.011,30.901l-45.135,14.745
	l-44.321-15.446L81.07,241.412l-8.737-46.571l9.722-45.846l36.014-30.904l45.133-14.744l44.319,15.445l35.379,31.585
	L251.636,196.942z M239.035,129.775l2.465,13.137l-22.232-20.026L239.035,129.775z M182.982,96.885l15.37,13.721l-27.555-9.74
	L182.982,96.885z M143.324,96.419l11.393,3.971l-25.867,8.45L143.324,96.419z M86.416,128.432l18.141-5.927l-20.64,17.712
	L86.416,128.432z M66.273,162.539l9.722-8.343l-5.927,28.574L66.273,162.539z M65.419,227.44l4.337-20.447l5.642,29.356
	L65.419,227.44z M84.934,262.012l-2.464-13.134l22.228,20.022L84.934,262.012z M140.986,294.902l-15.371-13.722l27.557,9.74
	L140.986,294.902z M180.645,295.368l-11.393-3.971l25.868-8.45L180.645,295.368z M237.551,263.356l-18.138,5.925l20.637-17.709
	L237.551,263.356z M253.9,209.012l3.796,20.237l-9.724,8.345L253.9,209.012z"/>
<g>
	<path fill="#35AFC6" d="M125.205,175.288l32.774-33.547h4.792v25.508h25.199v16.542h-25.199v27.055c0,3.4,1.005,6.106,3.015,8.116
		s4.715,3.015,8.116,3.015c2.37,0,4.715-0.398,7.034-1.196c2.319-0.797,4.817-1.944,7.498-3.441v17.505
		c-3.906,1.638-7.759,2.945-11.561,3.916c-3.802,0.971-7.602,1.459-11.404,1.459c-18.291,0-27.434-9.275-27.434-27.827v-7.421
		v-21.18h-12.832V175.288z"/>
</g>
<g>
	<path fill="#35AFC6" d="M422.62,227.424c0,6.153-4.988,11.143-11.143,11.143h-68.713c-6.154,0-11.144-4.989-11.144-11.143V158.71
		c0-6.154,4.989-11.143,11.144-11.143h68.713c6.154,0,11.143,4.989,11.143,11.143V227.424z"/>
	<path fill="#1B2127" d="M388.478,178.099c0,1.512-1.177,2.738-2.628,2.738h-26.936c-1.451,0-2.628-1.226-2.628-2.738
		c0-1.512,1.177-2.738,2.628-2.738h26.936C387.301,175.361,388.478,176.587,388.478,178.099"/>
	<path fill="#1B2127" d="M392.086,184.944h-5h-23.062h-5c-1.512,0-2.738,1.226-2.738,2.738c0,1.512,1.227,2.737,2.738,2.737h5
		h23.062h5c1.513,0,2.738-1.225,2.738-2.737C394.824,186.17,393.599,184.944,392.086,184.944"/>
	<path fill="#1B2127" d="M384.456,197.264c0,1.512-1.03,2.738-2.3,2.738h-23.57c-1.27,0-2.299-1.227-2.299-2.738
		s1.029-2.738,2.299-2.738h23.57C383.426,194.525,384.456,195.752,384.456,197.264"/>
	<path fill="#1B2127" d="M395.3,204.108h-8.213h-19.85h-8.213c-1.512,0-2.737,1.226-2.737,2.737c0,1.513,1.226,2.738,2.737,2.738
		h8.213h19.85h8.213c1.512,0,2.738-1.226,2.738-2.738C398.038,205.334,396.812,204.108,395.3,204.108"/>
</g>
</svg>
